<svg width="25" height="29" viewBox="0 0 25 29" fill="none" xmlns="http://www.w3.org/2000/svg">
<path d="M20.2057 15.4245C20.2057 11.7014 23.345 9.97288 23.4815 9.83992C21.7071 7.31356 18.9773 7.04763 18.0219 6.91466C15.7015 6.64873 13.5177 8.24432 12.2893 8.24432C11.0608 8.24432 9.28646 6.91466 7.3756 6.91466C4.91877 6.91466 2.59843 8.37729 1.23352 10.5047C-1.3598 14.8926 0.551072 21.5409 3.14439 25.131C4.37281 26.8596 5.8742 28.854 7.78507 28.854C9.69594 28.7211 10.3784 27.6574 12.6987 27.6574C15.0191 27.6574 15.565 28.854 17.6124 28.854C19.6597 28.854 20.8882 27.1255 22.1166 25.264C23.618 23.2695 24.1639 21.275 24.1639 21.142C24.1639 21.275 20.2057 19.8124 20.2057 15.4245Z" fill="white"/>
<path d="M16.3838 4.65381C17.3392 3.45712 18.1582 1.72856 17.8852 0C16.3838 0 14.6094 0.930762 13.5175 2.26042C12.5621 3.32415 11.7431 5.05271 12.0161 6.78127C13.654 6.78127 15.4284 5.8505 16.3838 4.65381Z" fill="white"/>
</svg>
