<svg width="33" height="19" viewBox="0 0 33 19" fill="none" xmlns="http://www.w3.org/2000/svg">
<path opacity="0.5" d="M20.987 9.8471C20.9604 10.1802 20.893 10.5072 20.7866 10.8179C20.3331 12.1445 19.2159 12.9999 17.9912 12.9999H2.9843C2.41289 13.0039 1.85277 12.8144 1.37195 12.4544C1.22091 12.3398 1.07943 12.209 0.949385 12.0637C0.0738472 11.0839 -0.208395 9.40759 0.153878 8.01375C0.573507 6.39814 1.84893 5.2009 3.40073 4.95206C3.42901 4.76138 3.75553 2.76971 5.41431 1.84401C7.0336 0.94009 8.53364 1.82784 8.69131 1.92551C10.233 0.201961 12.444 -0.427611 14.4535 0.294343C16.6397 1.07913 18.239 3.33551 18.5183 6.03452C20.0565 6.37326 21.1316 8.03895 20.987 9.8471Z" fill="white"/>
<path d="M32.982 15.1195C32.9454 15.5295 32.8522 15.9319 32.7054 16.3143C32.0791 17.9471 30.5362 18.9999 28.8449 18.9999H8.12118C7.33208 19.0048 6.55859 18.7715 5.89459 18.3284C5.68602 18.1875 5.49065 18.0265 5.31106 17.8476C4.10198 16.6417 3.71222 14.5786 4.2125 12.8631C4.79199 10.8746 6.55329 9.40111 8.69625 9.09484C8.7353 8.86016 9.18621 6.40887 11.4769 5.26955C13.7131 4.15703 15.7846 5.24964 16.0023 5.36985C18.1312 3.24857 21.1845 2.47371 23.9596 3.36227C26.9786 4.32816 29.1872 7.10525 29.5729 10.4271C31.6971 10.844 33.1817 12.8941 32.982 15.1195Z" fill="white"/>
</svg>
