<svg width="20" height="20" viewBox="0 0 20 20" fill="none" xmlns="http://www.w3.org/2000/svg">
<path d="M5.83398 11.668H7.50065V13.3346H5.83398V11.668Z" fill="white"/>
<path d="M16.2222 1H9.11111C8.63962 1 8.18743 1.18964 7.85403 1.52721C7.52063 1.86477 7.33333 2.32261 7.33333 2.8V8.2H3.77778C2.79733 8.2 2 9.0073 2 10V18.1C2 18.3387 2.09365 18.5676 2.26035 18.7364C2.42705 18.9052 2.65314 19 2.88889 19H17.1111C17.3469 19 17.573 18.9052 17.7397 18.7364C17.9064 18.5676 18 18.3387 18 18.1V2.8C18 2.32261 17.8127 1.86477 17.4793 1.52721C17.1459 1.18964 16.6937 1 16.2222 1ZM3.77778 17.2V10H9.11111V17.2H3.77778ZM11.7778 6.4H10V4.6H11.7778V6.4ZM15.3333 13.6H13.5556V11.8H15.3333V13.6ZM15.3333 10H13.5556V8.2H15.3333V10ZM15.3333 6.4H13.5556V4.6H15.3333V6.4Z" fill="#EAEAEA"/>
</svg>
