<svg width="20" height="20" viewBox="0 0 20 20" fill="none" xmlns="http://www.w3.org/2000/svg">
<path d="M1.66928 7.94819C1.65012 8.29069 1.84178 8.60985 2.15345 8.75319L8.40678 11.6215L11.2751 17.874C11.4118 18.1707 11.7085 18.3599 12.0326 18.3599L12.0801 18.3582C12.2474 18.3488 12.4079 18.2893 12.5408 18.1873C12.6737 18.0853 12.7728 17.9456 12.8251 17.7865L17.4876 3.59319C17.5851 3.29485 17.5068 2.96569 17.2851 2.74319C17.0634 2.52069 16.7351 2.44485 16.4351 2.54069L2.24095 7.20402C2.08177 7.256 1.94201 7.35487 1.84 7.48767C1.73798 7.62046 1.67848 7.78098 1.66928 7.94819V7.94819Z" fill="#EAEAEA"/>
</svg>
