<svg width="20" height="20" viewBox="0 0 20 20" fill="none" xmlns="http://www.w3.org/2000/svg">
<path d="M16.666 3.33301H3.33268C2.89065 3.33301 2.46673 3.5086 2.15417 3.82116C1.84161 4.13372 1.66602 4.55765 1.66602 4.99967V14.9997C1.66602 15.4417 1.84161 15.8656 2.15417 16.1782C2.46673 16.4907 2.89065 16.6663 3.33268 16.6663H16.666C17.108 16.6663 17.532 16.4907 17.8445 16.1782C18.1571 15.8656 18.3327 15.4417 18.3327 14.9997V4.99967C18.3327 4.55765 18.1571 4.13372 17.8445 3.82116C17.532 3.5086 17.108 3.33301 16.666 3.33301ZM16.666 7.24967L9.99935 11.6947L3.33268 7.24967V5.24717L9.99935 9.69134L16.666 5.24717V7.24967Z" fill="#EAEAEA"/>
</svg>
