<svg width="76" height="75" viewBox="0 0 76 75" fill="none" xmlns="http://www.w3.org/2000/svg">
<circle cx="46.5" cy="45.5" r="29.5" fill="#FF6600"/>
<path d="M34.54 45.682C34.54 43.534 34.948 41.908 35.764 40.804C36.592 39.7 37.774 39.148 39.31 39.148C40.954 39.148 42.16 39.694 42.928 40.786C43.708 41.866 44.098 43.498 44.098 45.682C44.098 47.818 43.684 49.45 42.856 50.578C42.028 51.694 40.846 52.252 39.31 52.252C38.494 52.252 37.786 52.102 37.186 51.802C36.586 51.49 36.088 51.052 35.692 50.488C35.308 49.912 35.02 49.222 34.828 48.418C34.636 47.602 34.54 46.69 34.54 45.682ZM37.132 45.682C37.132 47.062 37.3 48.154 37.636 48.958C37.972 49.75 38.53 50.146 39.31 50.146C40.102 50.146 40.666 49.786 41.002 49.066C41.338 48.346 41.506 47.218 41.506 45.682C41.506 44.998 41.464 44.386 41.38 43.846C41.308 43.294 41.188 42.826 41.02 42.442C40.852 42.058 40.624 41.764 40.336 41.56C40.06 41.356 39.718 41.254 39.31 41.254C38.53 41.254 37.972 41.632 37.636 42.388C37.3 43.132 37.132 44.23 37.132 45.682ZM53.7068 42.514C53.7068 43.114 53.5868 43.72 53.3468 44.332C53.1068 44.944 52.8008 45.544 52.4288 46.132C52.0688 46.708 51.6608 47.272 51.2048 47.824C50.7608 48.376 50.3228 48.886 49.8908 49.354L48.8648 50.092V50.182L50.2508 49.894H53.9768V52H45.7508V50.74C46.0628 50.428 46.4108 50.08 46.7948 49.696C47.1908 49.3 47.5868 48.88 47.9828 48.436C48.3788 47.992 48.7628 47.536 49.1348 47.068C49.5188 46.588 49.8548 46.114 50.1428 45.646C50.4308 45.178 50.6648 44.722 50.8448 44.278C51.0248 43.822 51.1148 43.402 51.1148 43.018C51.1148 42.562 50.9768 42.178 50.7008 41.866C50.4248 41.542 49.9508 41.38 49.2788 41.38C48.8588 41.38 48.4328 41.47 48.0008 41.65C47.5688 41.818 47.1968 42.04 46.8848 42.316L45.8408 40.516C46.3568 40.132 46.9328 39.808 47.5688 39.544C48.2048 39.28 48.9668 39.148 49.8548 39.148C50.4068 39.148 50.9168 39.22 51.3848 39.364C51.8648 39.508 52.2728 39.718 52.6088 39.994C52.9568 40.27 53.2268 40.624 53.4188 41.056C53.6108 41.476 53.7068 41.962 53.7068 42.514ZM56.0975 50.776C56.0975 50.332 56.2415 49.984 56.5295 49.732C56.8175 49.48 57.1955 49.354 57.6635 49.354C58.1435 49.354 58.5275 49.48 58.8155 49.732C59.1035 49.984 59.2475 50.332 59.2475 50.776C59.2475 51.196 59.1035 51.538 58.8155 51.802C58.5275 52.066 58.1435 52.198 57.6635 52.198C57.1955 52.198 56.8175 52.066 56.5295 51.802C56.2415 51.538 56.0975 51.196 56.0975 50.776Z" fill="white"/>
<circle cx="8" cy="22" r="8" fill="#FF6600"/>
<circle cx="32.5" cy="3.5" r="3.5" fill="#FF6600"/>
</svg>
