<svg width="76" height="75" viewBox="0 0 76 75" fill="none" xmlns="http://www.w3.org/2000/svg">
<circle cx="46.5" cy="45.5" r="29.5" fill="#FF6600"/>
<path d="M33.54 45.682C33.54 43.534 33.948 41.908 34.764 40.804C35.592 39.7 36.774 39.148 38.31 39.148C39.954 39.148 41.16 39.694 41.928 40.786C42.708 41.866 43.098 43.498 43.098 45.682C43.098 47.818 42.684 49.45 41.856 50.578C41.028 51.694 39.846 52.252 38.31 52.252C37.494 52.252 36.786 52.102 36.186 51.802C35.586 51.49 35.088 51.052 34.692 50.488C34.308 49.912 34.02 49.222 33.828 48.418C33.636 47.602 33.54 46.69 33.54 45.682ZM36.132 45.682C36.132 47.062 36.3 48.154 36.636 48.958C36.972 49.75 37.53 50.146 38.31 50.146C39.102 50.146 39.666 49.786 40.002 49.066C40.338 48.346 40.506 47.218 40.506 45.682C40.506 44.998 40.464 44.386 40.38 43.846C40.308 43.294 40.188 42.826 40.02 42.442C39.852 42.058 39.624 41.764 39.336 41.56C39.06 41.356 38.718 41.254 38.31 41.254C37.53 41.254 36.972 41.632 36.636 42.388C36.3 43.132 36.132 44.23 36.132 45.682ZM48.1528 50.146C48.5608 50.146 48.9148 50.098 49.2148 50.002C49.5268 49.894 49.7848 49.75 49.9888 49.57C50.1928 49.39 50.3488 49.186 50.4568 48.958C50.5648 48.718 50.6188 48.472 50.6188 48.22C50.6188 47.572 50.3968 47.092 49.9528 46.78C49.5208 46.468 48.8188 46.312 47.8468 46.312H46.4248V44.98L48.7468 42.136L49.8808 41.308L48.3328 41.506H45.0748V39.4H52.5628V40.75L49.8628 44.062L48.9808 44.548V44.638L49.8088 44.53C50.2528 44.566 50.6728 44.668 51.0688 44.836C51.4768 45.004 51.8308 45.232 52.1308 45.52C52.4428 45.808 52.6888 46.168 52.8688 46.6C53.0488 47.02 53.1388 47.512 53.1388 48.076C53.1388 48.784 53.0068 49.402 52.7428 49.93C52.4908 50.446 52.1428 50.878 51.6988 51.226C51.2548 51.574 50.7328 51.832 50.1328 52C49.5328 52.168 48.8848 52.252 48.1888 52.252C47.9008 52.252 47.6068 52.24 47.3068 52.216C47.0068 52.192 46.7128 52.15 46.4248 52.09C46.1368 52.042 45.8608 51.988 45.5968 51.928C45.3448 51.856 45.1228 51.772 44.9308 51.676L45.6148 49.588C45.9508 49.744 46.3288 49.876 46.7488 49.984C47.1688 50.092 47.6368 50.146 48.1528 50.146ZM55.0975 50.776C55.0975 50.332 55.2415 49.984 55.5295 49.732C55.8175 49.48 56.1955 49.354 56.6635 49.354C57.1435 49.354 57.5275 49.48 57.8155 49.732C58.1035 49.984 58.2475 50.332 58.2475 50.776C58.2475 51.196 58.1035 51.538 57.8155 51.802C57.5275 52.066 57.1435 52.198 56.6635 52.198C56.1955 52.198 55.8175 52.066 55.5295 51.802C55.2415 51.538 55.0975 51.196 55.0975 50.776Z" fill="white"/>
<circle cx="8" cy="22" r="8" fill="#FF6600"/>
<circle cx="32.5" cy="3.5" r="3.5" fill="#FF6600"/>
</svg>
