<svg width="64" height="42" viewBox="0 0 64 42" fill="none" xmlns="http://www.w3.org/2000/svg">
<path fill-rule="evenodd" clip-rule="evenodd" d="M1.33815 40.1182C1.82647 40.4179 2.65397 40.7544 3.44058 40.7544C4.57358 40.7544 5.11482 40.1722 5.11482 39.401C5.11482 38.6101 4.66018 38.2023 3.51034 37.7479C1.93232 37.1584 1.19863 36.2766 1.19863 35.1959C1.19863 33.7344 2.35088 32.5333 4.20794 32.5333C5.08836 32.5333 5.86534 32.7789 6.3272 33.0957L5.95194 34.2944C5.61276 34.0684 4.98492 33.7491 4.17186 33.7491C3.22889 33.7491 2.72373 34.3116 2.72373 34.9846C2.72373 35.7387 3.22889 36.0752 4.3643 36.537C5.85572 37.1191 6.64954 37.91 6.64954 39.2536C6.64954 40.8625 5.44678 41.9874 3.41412 41.9874C2.46394 41.9874 1.58351 41.7246 0.962891 41.3513L1.33815 40.1182Z" fill="#2B2A29"/>
<path fill-rule="evenodd" clip-rule="evenodd" d="M13.9908 41.4741C13.5819 41.6829 12.6557 41.9997 11.489 41.9997C8.86462 41.9997 7.1543 40.1477 7.1543 37.3672C7.1543 34.5769 8.9849 32.5333 11.8379 32.5333C12.7712 32.5333 13.5987 32.7789 14.0365 33.0245L13.6781 34.2772C13.3028 34.0684 12.7111 33.8498 11.8475 33.8498C9.85089 33.8498 8.7684 35.4022 8.7684 37.2837C8.7684 39.3813 10.0674 40.6733 11.7946 40.6733C12.6918 40.6733 13.286 40.4474 13.7382 40.2459L13.9908 41.4741Z" fill="#2B2A29"/>
<path fill-rule="evenodd" clip-rule="evenodd" d="M14.9395 28.4805H16.5271V41.791H14.9395V28.4805Z" fill="#2B2A29"/>
<path fill-rule="evenodd" clip-rule="evenodd" d="M19.2839 37.2763C19.2839 39.2659 20.3664 40.7642 21.9083 40.7642C23.4166 40.7642 24.5496 39.2831 24.5496 37.2395C24.5496 35.7043 23.8087 33.7688 21.942 33.7688C20.0849 33.7688 19.2839 35.5668 19.2839 37.2763ZM26.1709 37.1756C26.1709 40.5284 23.9217 41.9899 21.8361 41.9899C19.498 41.9899 17.6602 40.1919 17.6602 37.3205C17.6602 34.3042 19.587 32.5234 21.9757 32.5234C24.4798 32.5333 26.1709 34.4221 26.1709 37.1756Z" fill="#2B2A29"/>
<path fill-rule="evenodd" clip-rule="evenodd" d="M34.5541 39.303C34.5541 40.2561 34.571 41.0838 34.6239 41.7912H33.2215L33.1349 40.3101H33.1012C32.7091 41.0372 31.7661 42 30.2242 42C28.8554 42 27.2148 41.1919 27.2148 38.0307V32.7252H28.8025V37.731C28.8025 39.4578 29.3269 40.6392 30.7462 40.6392C31.8094 40.6392 32.5431 39.868 32.8294 39.1213C32.916 38.8953 32.9689 38.5956 32.9689 38.2763V32.7153H34.5565V39.303H34.5541Z" fill="#2B2A29"/>
<path fill-rule="evenodd" clip-rule="evenodd" d="M42.2201 36.4118C42.2201 36.203 42.2033 35.9205 42.1503 35.7216C41.9146 34.685 41.051 33.8327 39.8651 33.8327C38.227 33.8327 37.2575 35.331 37.2575 37.3206C37.2575 39.1554 38.138 40.6734 39.829 40.6734C40.8923 40.6734 41.8617 39.9193 42.1479 38.701C42.2009 38.475 42.2177 38.2466 42.2177 37.9936V36.4118H42.2201ZM43.7885 28.4805V39.4453C43.7885 40.2534 43.8246 41.172 43.8583 41.7885H42.4534L42.3837 40.2165H42.3308C41.8593 41.226 40.8225 41.9973 39.4008 41.9973C37.2984 41.9973 35.6603 40.1453 35.6603 37.382C35.6434 34.3657 37.4572 32.5309 39.5668 32.5309C40.9187 32.5309 41.7991 33.1842 42.1912 33.9015H42.2249V28.478H43.7885V28.4805Z" fill="#2B2A29"/>
<path fill-rule="evenodd" clip-rule="evenodd" d="M44.9727 40.8184C44.9727 40.1452 45.4249 39.6367 46.0528 39.6367C46.6806 39.6367 47.116 40.128 47.116 40.8184C47.116 41.4915 46.6806 42 46.0167 42C45.4105 42 44.9727 41.4915 44.9727 40.8184Z" fill="#2B2A29"/>
<path fill-rule="evenodd" clip-rule="evenodd" d="M48.1772 35.5496C48.1772 34.4786 48.1603 33.56 48.1074 32.715H49.493L49.5628 34.513H49.6157C50.0078 33.2947 50.9844 32.5234 52.0477 32.5234C52.2137 32.5234 52.3363 32.5406 52.4831 32.5603V34.1126C52.3171 34.0758 52.1607 34.0758 51.9418 34.0758C50.8257 34.0758 50.0318 34.938 49.8153 36.1735C49.7793 36.3994 49.7624 36.6819 49.7624 36.9447V41.7787H48.1748V35.5496H48.1772Z" fill="#808285"/>
<path fill-rule="evenodd" clip-rule="evenodd" d="M60.451 39.303C60.451 40.2561 60.4679 41.0838 60.5208 41.7912H59.116L59.0294 40.3101H58.9957C58.6036 41.0372 57.6606 42 56.1187 42C54.7499 42 53.1094 41.1919 53.1094 38.0307V32.7252H54.697V37.731C54.697 39.4578 55.2214 40.6392 56.6407 40.6392C57.7039 40.6392 58.4376 39.868 58.7239 39.1213C58.8105 38.8953 58.873 38.5956 58.873 38.2763V32.7153H60.4607V39.303H60.451Z" fill="#808285"/>
<path fill-rule="evenodd" clip-rule="evenodd" d="M0.250174 27.9818C0.0697602 27.2056 0 26.4466 0 25.7687C0 24.4128 0.250174 23.4279 0.250174 23.4279C0.310312 23.0029 0.396911 22.6148 0.500349 22.2341C0.577325 21.9639 0.654302 21.7011 0.750523 21.4481C0.8275 21.2393 0.904477 21.0404 1.0007 20.8439C1.07767 20.6719 1.16427 20.5 1.25087 20.3477C1.32785 20.2028 1.41445 20.0579 1.50105 19.9228C1.57802 19.795 1.66462 19.6698 1.75122 19.5519C1.8282 19.434 1.9148 19.3259 2.00139 19.2178C2.07837 19.1196 2.16497 19.0189 2.25157 18.9206C2.32855 18.8297 2.41514 18.7389 2.50174 18.6504C2.57872 18.5694 2.66532 18.4883 2.75192 18.4073C2.82889 18.3262 2.91549 18.2525 3.00209 18.1813C3.07907 18.1101 3.16567 18.0462 3.25227 17.9725C3.32924 17.9086 3.41584 17.8448 3.50244 17.7834C3.58904 17.7195 3.66602 17.6655 3.75262 17.6114C3.83921 17.5574 3.91619 17.5034 4.00279 17.4493C4.08939 17.3953 4.16637 17.3511 4.25296 17.3044C4.33956 17.2602 4.41654 17.2135 4.50314 17.1693C4.58974 17.1251 4.66671 17.0882 4.75331 17.0416C4.83991 17.0047 4.91689 16.9605 5.00349 16.9237C5.09009 16.8868 5.16706 16.8524 5.25366 16.8156C5.34026 16.7788 5.41724 16.7517 5.50384 16.7173C5.59044 16.6903 5.66741 16.6535 5.75401 16.6265C5.84061 16.5994 5.91759 16.5724 6.00419 16.5454C6.09078 16.5184 6.16776 16.5012 6.25436 16.4742C6.34096 16.4472 6.42515 16.43 6.50453 16.4103C6.59113 16.3931 6.67533 16.3735 6.75471 16.3563C6.84852 16.3391 6.9255 16.3194 7.00488 16.3121C7.10832 16.2949 7.1853 16.285 7.25506 16.2752C7.34166 16.2654 7.38495 16.258 7.38495 16.258C7.38495 16.258 7.40179 15.8871 7.49561 15.2632C7.54612 14.9292 7.62551 14.5141 7.74578 14.0425C7.81554 13.7625 7.89252 13.4554 7.99596 13.1287C8.06572 12.8856 8.14991 12.6326 8.24613 12.3698C8.32311 12.1536 8.40009 11.9276 8.49631 11.7017C8.57328 11.5027 8.65026 11.3037 8.74648 11.1048C8.82346 10.923 8.90043 10.7437 8.99666 10.5619C9.07363 10.3998 9.16023 10.2279 9.24683 10.0658C9.32381 9.91103 9.41041 9.75874 9.497 9.59663C9.57398 9.45171 9.66058 9.30679 9.74718 9.16187C9.82415 9.02678 9.91075 8.89168 9.99735 8.75413C10.0743 8.62641 10.1609 8.49131 10.2475 8.36604C10.3245 8.23832 10.4111 8.12287 10.4977 7.99515C10.5747 7.87725 10.6613 7.75934 10.7479 7.6439C10.8249 7.53582 10.9115 7.41792 10.9981 7.30985C11.075 7.20177 11.1616 7.10106 11.2482 6.99299C11.3252 6.89474 11.4118 6.79403 11.4984 6.68596C11.5754 6.58771 11.662 6.487 11.7486 6.39612C11.8256 6.30523 11.9121 6.20698 11.9987 6.1161C12.0757 6.02522 12.1623 5.93434 12.2489 5.84591C12.3259 5.75503 12.4125 5.67397 12.4991 5.58309C12.5761 5.50204 12.6627 5.42098 12.7493 5.3301C12.8262 5.24904 12.9128 5.16798 12.9994 5.08693C13.0764 5.00587 13.163 4.93218 13.2496 4.85113C13.3266 4.77989 13.4132 4.70621 13.4998 4.62515C13.5768 4.55392 13.6634 4.48023 13.75 4.409C13.8269 4.33777 13.9135 4.2739 14.0001 4.20021C14.0771 4.13635 14.1637 4.06512 14.2503 4.00126C14.3273 3.93739 14.4139 3.87599 14.5005 3.8023C14.5775 3.73844 14.6641 3.67457 14.7507 3.61317C14.8276 3.5493 14.9142 3.4879 15.0008 3.4314C15.0778 3.36754 15.1644 3.3135 15.251 3.24964C15.328 3.1956 15.4146 3.13174 15.5012 3.0777C15.5782 3.02366 15.6648 2.96963 15.7514 2.91559C15.8283 2.86155 15.9149 2.80751 16.0015 2.75347C16.0785 2.69944 16.1651 2.6454 16.2517 2.59136C16.3287 2.53732 16.4153 2.49311 16.5019 2.43662C16.5789 2.38258 16.6655 2.33837 16.7521 2.2917C16.829 2.24748 16.9156 2.19345 17.0022 2.14678C17.0792 2.10256 17.1658 2.05589 17.2524 2.01168C17.3294 1.96747 17.416 1.9208 17.5026 1.87659C17.5796 1.83237 17.6662 1.78571 17.7528 1.74886C17.8297 1.70465 17.9163 1.6678 18.0029 1.62114C18.0294 1.61131 18.0534 1.59412 18.0799 1.58429C18.14 1.55727 18.1906 1.53025 18.2507 1.50323C18.3373 1.46639 18.4143 1.42218 18.5009 1.38533C18.5875 1.34849 18.6645 1.3141 18.751 1.27726C18.8376 1.24041 18.9146 1.20603 19.0012 1.16918C19.0878 1.13234 19.1648 1.09795 19.2514 1.07093C19.338 1.03409 19.415 0.9997 19.5016 0.972681C19.5882 0.935837 19.6651 0.908818 19.7517 0.8818C19.8383 0.854781 19.9153 0.817937 20.0019 0.790918C20.0885 0.763899 20.1655 0.73688 20.2521 0.709861C20.3387 0.682842 20.4157 0.655823 20.5023 0.628804C20.5889 0.601785 20.6658 0.584591 20.7524 0.557572C20.839 0.530553 20.916 0.51336 21.0026 0.486341C21.0892 0.469147 21.1662 0.442128 21.2528 0.422478C21.3394 0.405284 21.4164 0.378265 21.503 0.358615C21.5896 0.341421 21.6665 0.321771 21.7531 0.304577C21.8397 0.287383 21.9167 0.267733 22.0033 0.250539C22.0899 0.233345 22.1669 0.213695 22.2535 0.206326C22.3401 0.189132 22.4171 0.179307 22.5037 0.162114C22.5903 0.152288 22.6672 0.135095 22.7538 0.12527C22.8404 0.115445 22.9174 0.108076 23.004 0.0982506C23.0906 0.0884256 23.1676 0.0810568 23.2542 0.0712317C23.3408 0.0614067 23.4178 0.0540379 23.5044 0.0540379C23.591 0.0442128 23.6679 0.036844 23.7545 0.036844C23.8411 0.0270189 23.9181 0.0270189 24.0047 0.0196501C24.0913 0.0196501 24.1683 0.00982506 24.2549 0.00982506C24.3415 0.00982506 24.4185 0 24.5051 0C24.5917 0 24.6686 0 24.7552 0C24.8418 0 24.9188 0 25.0054 0C25.092 0 25.169 0.00982506 25.2556 0.00982506C25.3422 0.00982506 25.4192 0.0196501 25.5058 0.0196501C25.5924 0.0196501 25.6693 0.0294752 25.7559 0.036844C25.8425 0.0466691 25.9195 0.0466691 26.0061 0.0540379C26.0927 0.0638629 26.1697 0.0712317 26.2563 0.0712317C26.3429 0.0810568 26.4199 0.0884256 26.5065 0.0982506C26.5931 0.108076 26.67 0.115445 26.7566 0.12527C26.8432 0.135095 26.9202 0.152288 27.0068 0.162114C27.0934 0.171939 27.1704 0.189132 27.257 0.198958C27.3436 0.216151 27.4206 0.225976 27.5072 0.24317C27.5938 0.260364 27.6707 0.280014 27.7573 0.287383C27.8439 0.304577 27.9209 0.324227 28.0075 0.341421C28.0941 0.358615 28.1711 0.378265 28.2577 0.395459C28.3443 0.412653 28.4213 0.432303 28.5078 0.459322C28.5944 0.476516 28.6714 0.503534 28.758 0.523185C28.8446 0.540379 28.9216 0.567397 29.0082 0.587048C29.0948 0.614066 29.1718 0.63126 29.2584 0.658279C29.345 0.685298 29.4219 0.702492 29.5085 0.729511C29.5951 0.75653 29.6721 0.783549 29.7587 0.810568C29.8453 0.837587 29.9223 0.864606 30.0089 0.891625C30.0955 0.918644 30.1725 0.945662 30.2591 0.982506C30.3457 1.00953 30.4226 1.04637 30.5092 1.07339C30.5958 1.10041 30.6728 1.13725 30.7594 1.17164C30.846 1.20848 30.923 1.2355 31.0096 1.26989C31.0962 1.30673 31.1732 1.33375 31.2598 1.36814C31.3464 1.40498 31.4233 1.43937 31.5099 1.47622C31.5965 1.51306 31.6735 1.54745 31.7601 1.58429C31.8467 1.62114 31.9237 1.65552 32.0103 1.70219C32.0969 1.73904 32.1739 1.78325 32.2605 1.82009C32.3471 1.86431 32.424 1.90115 32.5106 1.94782C32.5972 1.99203 32.6742 2.02888 32.7608 2.07554C32.8474 2.11976 32.9244 2.16643 33.011 2.21064C33.0976 2.25485 33.1746 2.30152 33.2612 2.34573C33.3478 2.38995 33.4247 2.43662 33.5113 2.49065C33.5979 2.53487 33.6749 2.5889 33.7615 2.63557C33.8481 2.67979 33.9251 2.73382 34.0117 2.78049C34.0983 2.83453 34.1753 2.87874 34.2619 2.93524C34.3485 2.98928 34.4254 3.04331 34.512 3.08998C34.5986 3.14402 34.6756 3.19806 34.7622 3.2521C34.8488 3.30613 34.9258 3.36017 35.0124 3.42403C35.099 3.47807 35.176 3.54194 35.2626 3.59597C35.3492 3.65984 35.4261 3.71387 35.5127 3.77774C35.5993 3.8416 35.6763 3.90546 35.7629 3.9595C35.8495 4.02336 35.9265 4.08723 36.0131 4.14863C36.0997 4.2125 36.1767 4.28373 36.2633 4.33777C36.3499 4.409 36.4365 4.47286 36.5134 4.53672C36.6 4.60795 36.6866 4.68164 36.7636 4.74551C36.8574 4.82656 36.9368 4.90025 37.0138 4.96166C37.1172 5.05254 37.2038 5.1336 37.264 5.18763C37.3337 5.2515 37.3578 5.28588 37.3578 5.28588C37.4107 5.26869 37.4516 5.24904 37.5045 5.23185C37.5911 5.20483 37.6681 5.16798 37.7547 5.14096C37.8413 5.11395 37.9183 5.0771 38.0049 5.05008C38.0915 5.02306 38.1684 4.99604 38.255 4.96903C38.3416 4.94201 38.4186 4.91499 38.5052 4.88797C38.5918 4.86095 38.6688 4.83393 38.7554 4.80691C38.842 4.77989 38.919 4.75287 39.0056 4.73568C39.0922 4.70866 39.1691 4.69147 39.2557 4.66445C39.3423 4.63743 39.4193 4.62024 39.5059 4.59322C39.5925 4.57602 39.6695 4.549 39.7561 4.52935C39.8427 4.51216 39.9197 4.48514 40.0062 4.46549C40.0928 4.4483 40.1698 4.42865 40.2564 4.41145C40.343 4.39426 40.42 4.37461 40.5066 4.35742C40.5932 4.34022 40.6702 4.3304 40.7568 4.3132C40.8434 4.29601 40.9203 4.28618 41.0069 4.26899C41.0935 4.2518 41.1705 4.24197 41.2571 4.23215C41.3437 4.22232 41.4207 4.20513 41.5073 4.1953C41.5939 4.18548 41.6709 4.17811 41.7575 4.16828C41.8441 4.15846 41.921 4.15109 42.0076 4.14126C42.0942 4.13144 42.1712 4.13144 42.2578 4.12407C42.3444 4.11425 42.4214 4.11425 42.508 4.10688C42.5946 4.10688 42.6716 4.09705 42.7582 4.09705C42.8448 4.09705 42.9217 4.09705 43.0083 4.08723C43.0949 4.08723 43.1719 4.08723 43.2585 4.08723C43.3451 4.08723 43.4221 4.08723 43.5087 4.09705C43.5953 4.09705 43.6723 4.10688 43.7589 4.10688C43.8455 4.1167 43.9224 4.1167 44.009 4.12407C44.0956 4.1339 44.1726 4.14126 44.2592 4.14126C44.3458 4.15109 44.4228 4.15846 44.5094 4.16828C44.596 4.17811 44.673 4.1953 44.7596 4.20513C44.8462 4.21495 44.9231 4.23215 45.0097 4.24197C45.0963 4.25917 45.1733 4.26899 45.2599 4.28618C45.3465 4.30338 45.4235 4.32303 45.5101 4.34022C45.5967 4.35742 45.6737 4.37707 45.7603 4.40408C45.8469 4.42128 45.9238 4.4483 46.0104 4.46795C46.097 4.49497 46.174 4.51216 46.2606 4.53918C46.3472 4.5662 46.4242 4.59322 46.5108 4.62024C46.5974 4.64725 46.6744 4.67427 46.761 4.71112C46.8476 4.73814 46.9245 4.77498 47.0111 4.80937C47.0977 4.84621 47.1747 4.8806 47.2613 4.91744C47.3479 4.95429 47.4249 4.98868 47.5115 5.03535C47.5981 5.07219 47.6751 5.1164 47.7617 5.15325C47.8483 5.19746 47.9252 5.2343 48.0118 5.27852C48.0984 5.32273 48.1754 5.3694 48.262 5.41361C48.3486 5.45782 48.4256 5.51186 48.5122 5.56836C48.5988 5.62239 48.6758 5.67643 48.7624 5.73047C48.8489 5.78451 48.9259 5.84837 49.0125 5.90241C49.0991 5.96627 49.1761 6.02031 49.2627 6.08417C49.3493 6.14803 49.4263 6.2119 49.5129 6.2733C49.5995 6.34453 49.6764 6.4084 49.7631 6.48209C49.8496 6.55332 49.9266 6.62701 50.0132 6.69824C50.0998 6.77929 50.1768 6.85298 50.2634 6.93404C50.35 7.0151 50.427 7.09615 50.5136 7.18703C50.6002 7.27792 50.6772 7.3688 50.7637 7.44985C50.8503 7.54074 50.9273 7.63899 51.0139 7.72987C51.1005 7.82812 51.1775 7.92883 51.2641 8.02708C51.3507 8.13515 51.4277 8.24323 51.5143 8.35131C51.6009 8.46921 51.6851 8.58711 51.7644 8.69518C51.851 8.82291 51.9376 8.94818 52.0146 9.06608C52.1012 9.20117 52.1854 9.33627 52.2648 9.47382C52.3514 9.62856 52.438 9.78085 52.515 9.91595C52.6088 10.0977 52.6858 10.2598 52.7651 10.4121C52.8782 10.6553 52.9624 10.8542 53.0153 10.982C53.0586 11.09 53.0755 11.1539 53.0755 11.1539C53.0755 11.1539 53.1356 11.1711 53.2559 11.2178C53.3256 11.2448 53.4026 11.2718 53.506 11.3086C53.583 11.3357 53.66 11.3725 53.7562 11.3995C53.8332 11.4265 53.9102 11.4634 54.0064 11.4978C54.0834 11.5346 54.17 11.5616 54.2566 11.596C54.3335 11.6329 54.4201 11.6673 54.5067 11.7041C54.5837 11.741 54.6703 11.7753 54.7569 11.822C54.8339 11.8589 54.9205 11.8932 55.0071 11.9399C55.0841 11.9768 55.1707 12.021 55.2573 12.0676C55.3342 12.1118 55.4208 12.1487 55.5074 12.1929C55.5844 12.2371 55.671 12.2838 55.7576 12.328C55.8346 12.3722 55.9212 12.4189 56.0078 12.4631C56.0848 12.5073 56.1714 12.554 56.258 12.608C56.3349 12.6522 56.4215 12.7063 56.5081 12.7529C56.5851 12.7971 56.6717 12.8512 56.7583 12.9077C56.8353 12.9617 56.9219 13.0059 57.0085 13.0624C57.0855 13.1165 57.1721 13.1705 57.2587 13.2245C57.3356 13.2786 57.4222 13.3326 57.5088 13.3965C57.5858 13.4505 57.6724 13.5144 57.759 13.5684C57.8456 13.6323 57.9226 13.6863 58.0092 13.7502C58.0958 13.814 58.1728 13.8754 58.2594 13.9393C58.346 14.0032 58.4229 14.067 58.5095 14.1383C58.5961 14.2021 58.6731 14.2734 58.7597 14.3372C58.8463 14.4085 58.9233 14.4723 59.0099 14.546C59.0965 14.6172 59.1735 14.6909 59.2601 14.7622C59.3467 14.8334 59.4236 14.9169 59.5102 14.9881C59.5968 15.0692 59.6738 15.1503 59.7604 15.2313C59.847 15.3124 59.924 15.3934 60.0106 15.4843C60.0972 15.5752 60.1742 15.6562 60.2608 15.7471C60.3474 15.838 60.4243 15.9289 60.5109 16.0271C60.5975 16.1254 60.6745 16.2163 60.7611 16.317C60.8477 16.4152 60.9247 16.5258 61.0113 16.624C61.0979 16.7321 61.1748 16.8402 61.2614 16.9482C61.348 17.0661 61.425 17.184 61.5116 17.2995C61.5982 17.4272 61.6752 17.5525 61.7618 17.6802C61.8484 17.8153 61.9254 17.9504 62.012 18.0879C62.0986 18.2329 62.1755 18.3852 62.2621 18.5399C62.3487 18.702 62.4257 18.8641 62.5123 19.0361C62.5989 19.2178 62.6759 19.407 62.7625 19.5961C62.8491 19.8049 62.9333 20.021 63.0127 20.247C63.0896 20.473 63.1666 20.699 63.2268 20.9421C63.2364 20.979 63.2436 21.006 63.2532 21.0404C63.347 21.3646 63.424 21.6815 63.5034 21.9885C63.5972 22.4036 63.6838 22.8015 63.7536 23.1724C64.124 25.2676 64.0374 26.8691 63.7536 28.053C63.6838 28.3502 63.5996 28.6302 63.5034 28.8759C63.4264 29.0846 63.3398 29.2811 63.2532 29.4629C63.1762 29.625 63.0896 29.7798 63.003 29.9149C62.9165 30.05 62.8395 30.1777 62.7529 30.2858C62.6663 30.4037 62.5893 30.5019 62.5027 30.5928C62.4161 30.691 62.3319 30.7819 62.2525 30.8556C62.1587 30.9465 62.0721 31.0177 62.0023 31.0718C61.8917 31.1626 61.8123 31.2069 61.8123 31.2069C61.8725 31.0251 61.9326 30.8188 62.0023 30.5658C62.0962 30.2145 62.1828 29.7896 62.2525 29.291C62.3896 28.2962 62.4426 27.041 62.2525 25.5599C62.1924 25.0981 62.1154 24.6192 62.0023 24.123C61.9326 23.7988 61.8484 23.4623 61.7522 23.1208C61.6752 22.8506 61.5982 22.578 61.502 22.3078C61.425 22.072 61.348 21.8387 61.2518 21.6029C61.1749 21.3941 61.0979 21.1779 61.0016 20.9691C60.9319 20.807 60.8645 20.6351 60.7948 20.473C60.7852 20.446 60.7683 20.4189 60.7611 20.3919C60.6841 20.22 60.6071 20.048 60.5109 19.8859C60.4339 19.7312 60.3474 19.5887 60.2608 19.4438C60.1838 19.3087 60.0972 19.181 60.0106 19.0459C59.9336 18.928 59.847 18.8101 59.7604 18.6946C59.6834 18.5866 59.5968 18.4785 59.5102 18.3704C59.4333 18.2722 59.3467 18.1715 59.2601 18.0732C59.1831 17.975 59.0965 17.8841 59.0099 17.7932C58.9329 17.7023 58.8463 17.6114 58.7597 17.5304C58.6827 17.4493 58.5961 17.3584 58.5095 17.2774C58.4326 17.1963 58.346 17.1153 58.2594 17.0416C58.1824 16.9703 58.0958 16.8868 58.0092 16.8156C57.9322 16.7444 57.8456 16.6707 57.759 16.5994C57.682 16.5282 57.5954 16.4644 57.5088 16.3907C57.4319 16.3268 57.3453 16.2556 57.2587 16.1917C57.1817 16.1278 57.0951 16.0664 57.0085 16.0026C56.9315 15.9387 56.8449 15.8748 56.7583 15.8208C56.6717 15.7569 56.5947 15.7029 56.5081 15.6489C56.4215 15.5948 56.3446 15.531 56.258 15.4769C56.1714 15.4229 56.0944 15.3689 56.0078 15.3148C55.9212 15.2608 55.8442 15.2067 55.7576 15.1601C55.671 15.106 55.594 15.0618 55.5074 15.0053C55.4208 14.9513 55.3439 14.9071 55.2573 14.8604C55.1707 14.8162 55.0937 14.7622 55.0071 14.7155C54.9205 14.6713 54.8435 14.6246 54.7569 14.5804C54.6703 14.5362 54.5933 14.4895 54.5067 14.4453C54.4201 14.4011 54.3432 14.3544 54.2566 14.32C54.17 14.2758 54.093 14.239 54.0064 14.1923C53.9198 14.1481 53.8428 14.1112 53.7562 14.0744C53.6696 14.0376 53.5926 13.9933 53.506 13.9565C53.4194 13.9197 53.3425 13.8853 53.2559 13.8484C53.1693 13.8116 53.0923 13.7772 53.0057 13.7404C52.9191 13.7035 52.8421 13.6691 52.7555 13.6323C52.6689 13.5954 52.5919 13.561 52.5053 13.534C52.4187 13.4972 52.3418 13.4702 52.2552 13.4358C52.1686 13.3989 52.0916 13.3719 52.005 13.3449C51.9184 13.3081 51.8342 13.281 51.7548 13.254C51.6682 13.2172 51.584 13.1901 51.5047 13.1631C51.4108 13.1263 51.3242 13.0993 51.2545 13.0821C51.1246 13.0452 51.0644 13.0182 51.0644 13.0182C51.0476 12.9814 51.0308 12.947 51.0139 12.9101C50.9369 12.7382 50.8503 12.5761 50.7637 12.414C50.6868 12.2519 50.6002 12.0971 50.5136 11.9448C50.4366 11.7999 50.35 11.6476 50.2634 11.5101C50.1864 11.375 50.0998 11.2399 50.0132 11.1023C49.9362 10.9746 49.8496 10.8493 49.7631 10.7216C49.6861 10.6037 49.5995 10.4858 49.5129 10.3704C49.4359 10.2525 49.3493 10.1444 49.2627 10.0363C49.1857 9.92823 49.0991 9.82752 49.0125 9.72927C48.9356 9.63102 48.8489 9.53031 48.7624 9.43943C48.6854 9.34855 48.5988 9.25767 48.5122 9.16924C48.4352 9.07836 48.3486 8.9973 48.262 8.91625C48.185 8.83519 48.0984 8.75413 48.0118 8.68044C47.9349 8.60921 47.8483 8.5257 47.7617 8.45447C47.6847 8.38324 47.5981 8.31937 47.5115 8.24568C47.4249 8.18182 47.3479 8.12042 47.2613 8.05655C47.1747 7.99269 47.0977 7.93865 47.0111 7.87479C46.9245 7.82075 46.8476 7.76671 46.761 7.71268C46.6744 7.65864 46.5974 7.6046 46.5108 7.55793C46.4242 7.51372 46.3472 7.45968 46.2606 7.41301C46.174 7.3688 46.097 7.32213 46.0104 7.28529C45.9238 7.24107 45.8469 7.20423 45.7603 7.16738C45.6737 7.13054 45.5967 7.09615 45.5101 7.05931C45.4235 7.02246 45.3465 6.99545 45.2599 6.96106C45.1733 6.93404 45.0963 6.8972 45.0097 6.88C44.9231 6.85298 44.8462 6.82596 44.7596 6.80877C44.673 6.78175 44.596 6.76456 44.5094 6.74491C44.4228 6.72771 44.3458 6.70806 44.2592 6.69087C44.1726 6.67367 44.0956 6.65403 44.009 6.64666C43.9224 6.62946 43.8455 6.61964 43.7589 6.60981C43.6723 6.59999 43.5953 6.59262 43.5087 6.58279C43.4221 6.57297 43.3451 6.5656 43.2585 6.5656C43.1719 6.55577 43.0949 6.55577 43.0083 6.55577C42.9217 6.55577 42.8448 6.55577 42.7582 6.54595C42.6716 6.54595 42.5946 6.54595 42.508 6.54595C42.4214 6.54595 42.3444 6.55577 42.2578 6.55577C42.1712 6.5656 42.0942 6.5656 42.0076 6.57297C41.921 6.58279 41.8441 6.59016 41.7575 6.59999C41.6709 6.60981 41.5939 6.61718 41.5073 6.63683C41.4207 6.64666 41.3437 6.66385 41.2571 6.67367C41.1705 6.69087 41.0935 6.70069 41.0069 6.71789C40.9203 6.73508 40.8434 6.75473 40.7568 6.77192C40.6702 6.78912 40.5932 6.80877 40.5066 6.83579C40.42 6.85298 40.343 6.88 40.2564 6.89965C40.1698 6.92667 40.0928 6.94386 40.0062 6.97088C39.9197 6.9979 39.8427 7.02492 39.7561 7.05194C39.6695 7.07896 39.5925 7.10598 39.5059 7.14282C39.4193 7.16984 39.3423 7.20668 39.2557 7.2337C39.1691 7.27055 39.0922 7.29757 39.0056 7.33195C38.919 7.3688 38.842 7.40319 38.7554 7.44003C38.6688 7.47687 38.5918 7.51126 38.5052 7.54811C38.4186 7.58495 38.3416 7.62916 38.255 7.66601C38.1684 7.71022 38.0915 7.74706 38.0049 7.79373C37.9183 7.83794 37.8413 7.88461 37.7547 7.92883C37.6681 7.97304 37.5839 8.02708 37.5045 8.07375C37.4179 8.12778 37.3313 8.172 37.2543 8.21867C37.1605 8.2727 37.0811 8.32674 37.0042 8.38078C36.8911 8.45201 36.8141 8.50605 36.754 8.55272C36.7035 8.58956 36.677 8.60676 36.677 8.60676C36.6241 8.53552 36.5639 8.46184 36.5038 8.38078C36.4268 8.28253 36.3499 8.18182 36.2536 8.07375C36.1767 7.98286 36.0997 7.88461 36.0035 7.78391C35.9265 7.69303 35.8399 7.60214 35.7533 7.50389C35.6763 7.41301 35.5897 7.33195 35.5031 7.24107C35.4261 7.16002 35.3395 7.07896 35.2529 6.98808C35.176 6.90702 35.0894 6.82596 35.0028 6.74491C34.9258 6.67368 34.8392 6.59016 34.7526 6.50911C34.6756 6.43787 34.589 6.36418 34.5024 6.28313C34.4254 6.2119 34.3388 6.13821 34.2522 6.06698C34.1753 5.99575 34.0887 5.93188 34.0021 5.85819C33.9251 5.79433 33.8385 5.7231 33.7519 5.65924C33.6749 5.59537 33.5883 5.53397 33.5017 5.4701C33.4247 5.40624 33.3381 5.34238 33.2515 5.28834C33.1746 5.22448 33.088 5.17044 33.0014 5.10658C32.9244 5.05254 32.8378 4.98868 32.7512 4.93464C32.6742 4.8806 32.5876 4.82656 32.501 4.77252C32.424 4.71849 32.3374 4.66445 32.2508 4.61778C32.1739 4.56374 32.0873 4.51953 32.0007 4.46304C31.9237 4.41882 31.8371 4.36478 31.7505 4.31812C31.6735 4.2739 31.5869 4.22723 31.5003 4.18302C31.4233 4.13881 31.3367 4.09214 31.2501 4.04793C31.1732 4.00371 31.0866 3.96687 31 3.9202C30.923 3.87599 30.8364 3.83914 30.7498 3.8023C30.6728 3.76546 30.5862 3.72124 30.4996 3.6844C30.4226 3.64756 30.336 3.61317 30.2494 3.57632C30.1725 3.53948 30.0859 3.50509 29.9993 3.46825C29.9223 3.4314 29.8357 3.40438 29.7491 3.37C29.6721 3.34298 29.5855 3.30613 29.4989 3.27912C29.4219 3.2521 29.3354 3.22508 29.2488 3.18823C29.1718 3.16121 29.0852 3.1342 28.9986 3.10718C28.9216 3.08016 28.835 3.05314 28.7484 3.02612C28.6714 2.9991 28.5848 2.98191 28.4982 2.95489C28.4212 2.92787 28.3347 2.91068 28.2481 2.89103C28.1711 2.87383 28.0845 2.84681 27.9979 2.82716C27.9209 2.80997 27.8343 2.79032 27.7477 2.77312C27.6707 2.75593 27.5841 2.73628 27.4975 2.71909C27.4206 2.70189 27.334 2.69207 27.2474 2.67487C27.1704 2.65768 27.0838 2.64785 26.9972 2.63066C26.9202 2.62084 26.8336 2.60364 26.747 2.59382C26.67 2.58399 26.5834 2.57662 26.4968 2.55697C26.4199 2.54715 26.3333 2.53978 26.2467 2.52995C26.1697 2.52013 26.0831 2.51276 25.9965 2.51276C25.9195 2.50294 25.8329 2.50294 25.7463 2.49557C25.6693 2.48574 25.5827 2.48574 25.4961 2.48574C25.4192 2.48574 25.3326 2.47592 25.246 2.47592C25.169 2.47592 25.0824 2.47592 24.9958 2.47592C24.9188 2.47592 24.8322 2.47592 24.7456 2.47592C24.6686 2.47592 24.582 2.48574 24.4954 2.48574C24.4185 2.48574 24.3319 2.49557 24.2453 2.49557C24.1683 2.50539 24.0817 2.50539 23.9951 2.51276C23.9181 2.52259 23.8315 2.52995 23.7449 2.52995C23.6583 2.53978 23.5813 2.54715 23.4947 2.55697C23.4178 2.5668 23.3312 2.57417 23.2446 2.59382C23.1676 2.60364 23.081 2.62084 22.9944 2.63066C22.9078 2.64049 22.8308 2.65768 22.7442 2.6675C22.6672 2.6847 22.5806 2.69452 22.494 2.71172C22.4171 2.72891 22.3305 2.74856 22.2439 2.75593C22.1669 2.77312 22.0803 2.79277 21.9937 2.80997C21.9167 2.82716 21.8301 2.84681 21.7435 2.87383C21.6569 2.89103 21.5799 2.91804 21.4933 2.93769C21.4164 2.95489 21.3298 2.98191 21.2432 3.00893C21.1662 3.03594 21.0796 3.05314 20.993 3.08016C20.9064 3.10718 20.8294 3.1342 20.7428 3.16121C20.6658 3.18823 20.5792 3.21525 20.4926 3.24227C20.406 3.26929 20.3291 3.29631 20.2425 3.33315C20.1655 3.36017 20.0789 3.39702 19.9923 3.42403C19.9153 3.45105 19.8287 3.4879 19.7421 3.52229C19.6555 3.55913 19.5786 3.58615 19.492 3.62054C19.415 3.65738 19.3284 3.69177 19.2418 3.72861C19.1648 3.76546 19.095 3.79247 19.0181 3.82686C19.0084 3.82686 19.0012 3.83669 18.9916 3.83669C18.905 3.87353 18.828 3.91774 18.7414 3.95459C18.6548 3.99143 18.5779 4.03565 18.4913 4.07249C18.4047 4.1167 18.3277 4.15355 18.2411 4.20021C18.1545 4.24443 18.0775 4.2911 17.9909 4.33531C17.9043 4.37952 17.8273 4.42619 17.7407 4.4704C17.6541 4.51462 17.5772 4.56129 17.4906 4.61532C17.404 4.65954 17.327 4.71357 17.2404 4.76024C17.1538 4.81428 17.0768 4.85849 16.9902 4.91499C16.9036 4.96903 16.8266 5.02306 16.74 5.0771C16.6534 5.13114 16.5765 5.18518 16.4899 5.24904C16.4033 5.30308 16.3263 5.36694 16.2397 5.42098C16.1531 5.48484 16.0761 5.53888 15.9895 5.60274C15.9029 5.66661 15.8259 5.73047 15.7393 5.79187C15.6527 5.85574 15.5758 5.9196 15.4892 5.99083C15.4026 6.06206 15.3256 6.12593 15.239 6.19962C15.1524 6.27085 15.0754 6.34453 14.9888 6.41577C14.9022 6.487 14.8252 6.57051 14.7386 6.64174C14.652 6.7228 14.5751 6.79649 14.4885 6.87754C14.4019 6.9586 14.3249 7.03966 14.2383 7.12072C14.1517 7.20177 14.0747 7.29265 13.9881 7.37371C13.9015 7.46459 13.8245 7.55547 13.7379 7.63653C13.6513 7.72741 13.5744 7.82566 13.4878 7.91655C13.4012 8.0148 13.3242 8.1155 13.2376 8.20638C13.151 8.30464 13.074 8.41517 12.9874 8.51342C12.9008 8.62149 12.8238 8.72957 12.7372 8.83764C12.6506 8.94572 12.5737 9.06362 12.4871 9.1717C12.4005 9.2896 12.3235 9.4075 12.2369 9.52294C12.1503 9.65067 12.0733 9.77594 11.9867 9.90366C11.9001 10.0388 11.8231 10.1739 11.7365 10.3016C11.6499 10.4465 11.573 10.5816 11.4864 10.7265C11.3998 10.8813 11.3228 11.0335 11.2362 11.1785C11.1496 11.3406 11.0726 11.5027 10.986 11.6673C10.8994 11.8392 10.8224 12.0185 10.7358 12.1904C10.6492 12.3796 10.5651 12.5712 10.4857 12.7603C10.3991 12.9691 10.3149 13.1754 10.2355 13.3842C10.1489 13.62 10.0647 13.8533 9.98532 14.0719C9.89151 14.3421 9.81453 14.605 9.73515 14.858C9.64134 15.1822 9.56436 15.4917 9.48498 15.7791C9.38154 16.2212 9.29494 16.6093 9.2348 16.9458C9.1049 17.6606 9.08085 18.0855 9.08085 18.0855C9.05439 18.0953 9.02071 18.1027 8.99425 18.1027C8.90765 18.1199 8.83067 18.1395 8.74407 18.1567C8.65748 18.1739 8.5805 18.1936 8.4939 18.2206C8.4073 18.2378 8.33033 18.2648 8.24373 18.2844C8.15713 18.3115 8.08015 18.3287 7.99355 18.3557C7.90695 18.3827 7.82998 18.3999 7.74338 18.4269C7.65678 18.4539 7.5798 18.4809 7.4932 18.508C7.4066 18.535 7.32963 18.562 7.24303 18.589C7.15643 18.616 7.07945 18.6529 6.99286 18.6799C6.90626 18.7167 6.82928 18.7438 6.74268 18.7782C6.65608 18.815 6.5791 18.842 6.49251 18.8764C6.40591 18.9132 6.32893 18.9476 6.24233 18.9845C6.15573 19.0213 6.07876 19.0655 5.99216 19.1024C5.90556 19.1466 5.82858 19.1834 5.74198 19.2301C5.65538 19.2743 5.57841 19.321 5.49181 19.3652C5.40521 19.4094 5.32823 19.4635 5.24163 19.5101C5.15504 19.5642 5.07806 19.6084 4.99146 19.6649C4.90486 19.7189 4.82788 19.7729 4.74129 19.827C4.65469 19.881 4.57771 19.9449 4.49111 20.0087C4.40451 20.0726 4.32754 20.1365 4.24094 20.1979C4.15434 20.2617 4.07736 20.333 3.99076 20.4067C3.90416 20.4779 3.82719 20.5516 3.74059 20.6326C3.65399 20.7137 3.57701 20.7947 3.49041 20.8758C3.40381 20.9667 3.32684 21.0477 3.24024 21.1386C3.15364 21.2295 3.07666 21.3278 2.99006 21.4285C2.90347 21.5267 2.82649 21.6372 2.73989 21.7453C2.65329 21.8632 2.57631 21.9713 2.48972 22.0892C2.40312 22.2169 2.31892 22.352 2.23954 22.4773C2.15294 22.6222 2.06875 22.7745 1.98937 22.9194C1.90277 23.0914 1.81858 23.2633 1.73919 23.4352C1.65259 23.644 1.5684 23.8503 1.48902 24.0591C1.3952 24.3293 1.3086 24.5921 1.23884 24.8623C1.12819 25.2774 1.04881 25.6925 0.98867 26.0905C0.774578 27.5912 0.894854 28.8832 0.98867 29.5513C1.03197 29.8584 1.06565 30.0303 1.06565 30.0303C1.03919 29.9861 1.01513 29.9394 0.98867 29.8952C0.902071 29.7429 0.817878 29.5784 0.738496 29.4261C0.64468 29.2271 0.567703 29.0282 0.488321 28.8292C0.394506 28.5344 0.310312 28.2643 0.250174 27.9818Z" fill="url(#paint0_linear_4022_48)"/>
<defs>
<linearGradient id="paint0_linear_4022_48" x1="0" y1="15.5986" x2="63.7944" y2="15.5986" gradientUnits="userSpaceOnUse">
<stop stop-color="#4DB849"/>
<stop offset="0.5312" stop-color="#FFE500"/>
<stop offset="1" stop-color="#F6841F"/>
</linearGradient>
</defs>
</svg>
