<svg width="50" height="50" viewBox="0 0 50 50" fill="none" xmlns="http://www.w3.org/2000/svg">
<path d="M14.4167 45.6667H8.16667C7.0616 45.6667 6.00179 45.2277 5.22039 44.4463C4.43899 43.6649 4 42.6051 4 41.5V26.9167C4 25.8116 4.43899 24.7518 5.22039 23.9704C6.00179 23.189 7.0616 22.75 8.16667 22.75H14.4167M29 18.5833V10.25C29 8.5924 28.3415 7.00269 27.1694 5.83058C25.9973 4.65848 24.4076 4 22.75 4L14.4167 22.75V45.6667H37.9167C38.9215 45.678 39.8966 45.3258 40.6623 44.675C41.428 44.0242 41.9327 43.1186 42.0833 42.125L44.9583 23.375C45.049 22.7778 45.0087 22.1681 44.8403 21.588C44.6719 21.008 44.3794 20.4714 43.983 20.0157C43.5867 19.5599 43.096 19.1957 42.5449 18.9484C41.9939 18.701 41.3956 18.5765 40.7917 18.5833H29Z" stroke="#FF6600" stroke-width="4" stroke-linecap="round" stroke-linejoin="round"/>
</svg>
