<svg width="40" height="40" viewBox="0 0 40 40" fill="none" xmlns="http://www.w3.org/2000/svg">
<circle cx="20" cy="20" r="20" fill="white"/>
<path d="M20.1876 20.4104C17.6437 20.4104 15.5293 18.2755 15.5293 15.7493C15.5293 13.1358 17.6437 11 20.1885 11C22.8197 11 24.8467 13.1349 24.8467 15.7493C24.8377 18.332 22.7585 20.4195 20.2029 20.4113C20.1975 20.4113 20.193 20.4113 20.1876 20.4104ZM20.1876 13.7455C19.1106 13.7455 18.2911 14.6601 18.2911 15.7503C18.2911 16.8386 19.1106 17.6667 20.1885 17.6667C21.3096 17.6667 22.0858 16.8386 22.0858 15.7503C22.0867 14.6592 21.3096 13.7455 20.1876 13.7455ZM22.0426 24.2889L24.6747 26.8597C25.1925 27.4248 25.1925 28.2529 24.6747 28.7762C24.1146 29.3413 23.251 29.3413 22.8197 28.7762L20.1885 26.1617L17.6437 28.7762C17.3852 29.0373 17.0394 29.1675 16.6504 29.1675C16.3488 29.1675 16.0039 29.0364 15.7013 28.7762C15.1835 28.2529 15.1835 27.4248 15.7013 26.8588L18.3758 24.288C17.4104 23.9995 16.4829 23.5891 15.6176 23.0695C14.9701 22.7209 14.8413 21.8501 15.1862 21.1958C15.6176 20.5424 16.3938 20.3686 17.0845 20.8045C18.9908 21.9802 21.3888 21.9802 23.2952 20.8045C23.9858 20.3686 24.8044 20.5424 25.1925 21.1958C25.5815 21.8501 25.4077 22.72 24.8035 23.0695C23.9849 23.5927 23.0358 23.985 22.0435 24.2898L22.0426 24.2889Z" fill="#999999"/>
</svg>
