<svg width="25" height="27" viewBox="0 0 25 27" fill="none" xmlns="http://www.w3.org/2000/svg">
<path fill-rule="evenodd" clip-rule="evenodd" d="M0.477757 0.402825C0.174916 0.721532 0 1.20852 0 1.84593V24.4537C0 25.0911 0.174916 25.5781 0.488199 25.8841L0.569131 25.9529L13.5391 13.2862V13.0032L0.558688 0.333984L0.477757 0.402825Z" fill="url(#paint0_linear_4022_231)"/>
<path fill-rule="evenodd" clip-rule="evenodd" d="M17.8552 17.5207L13.5293 13.2959V13.0002L17.8552 8.77539L17.9492 8.83148L23.0662 11.6718C24.5308 12.4775 24.5308 13.8084 23.0662 14.6243L17.9492 17.4646L17.8552 17.5207Z" fill="url(#paint1_linear_4022_231)"/>
<path fill-rule="evenodd" clip-rule="evenodd" d="M17.9473 17.465L13.5274 13.1484L0.476562 25.8942C0.95432 26.3939 1.7558 26.45 2.65127 25.963L17.9473 17.465Z" fill="url(#paint2_linear_4022_231)"/>
<path fill-rule="evenodd" clip-rule="evenodd" d="M17.9473 8.8313L2.65127 0.346057C1.7558 -0.153675 0.951709 -0.0848338 0.476562 0.414898L13.5274 13.1479L17.9473 8.8313Z" fill="url(#paint3_linear_4022_231)"/>
<path opacity="0.2" fill-rule="evenodd" clip-rule="evenodd" d="M17.8546 17.373L2.66299 25.8022C1.81451 26.279 1.05741 26.2458 0.569213 25.8124L0.488281 25.8914L0.569213 25.9603C1.05741 26.3912 1.81451 26.4269 2.66299 25.9501L17.959 17.4648L17.8546 17.373Z" fill="black"/>
<path opacity="0.12" fill-rule="evenodd" clip-rule="evenodd" d="M23.0658 14.4768L17.8418 17.3732L17.9358 17.465L23.0527 14.6247C23.7863 14.2167 24.1466 13.6813 24.1466 13.1484C24.1022 13.638 23.7289 14.102 23.0658 14.4768Z" fill="black"/>
<path opacity="0.25" fill-rule="evenodd" clip-rule="evenodd" d="M2.65247 0.494485L23.0655 11.82C23.7286 12.1846 24.1019 12.6614 24.1594 13.1484C24.1594 12.6155 23.7991 12.0801 23.0655 11.6722L2.65247 0.346605C1.18787 -0.471834 0 0.211473 0 1.8458V1.99368C0 0.356803 1.18787 -0.313755 2.65247 0.494485Z" fill="white"/>
<defs>
<linearGradient id="paint0_linear_4022_231" x1="12.3757" y1="1.60201" x2="-8.33339" y2="7.25208" gradientUnits="userSpaceOnUse">
<stop stop-color="#00A0FF"/>
<stop offset="0.00657" stop-color="#00A1FF"/>
<stop offset="0.2601" stop-color="#00BEFF"/>
<stop offset="0.5122" stop-color="#00D2FF"/>
<stop offset="0.7604" stop-color="#00DFFF"/>
<stop offset="1" stop-color="#00E3FF"/>
</linearGradient>
<linearGradient id="paint1_linear_4022_231" x1="24.9761" y1="13.1481" x2="-0.355288" y2="13.1481" gradientUnits="userSpaceOnUse">
<stop stop-color="#FFE000"/>
<stop offset="0.4087" stop-color="#FFBD00"/>
<stop offset="0.7754" stop-color="#FFA500"/>
<stop offset="1" stop-color="#FF9C00"/>
</linearGradient>
<linearGradient id="paint2_linear_4022_231" x1="15.544" y1="15.4973" x2="-0.557927" y2="43.2469" gradientUnits="userSpaceOnUse">
<stop stop-color="#FF3A44"/>
<stop offset="1" stop-color="#C31162"/>
</linearGradient>
<linearGradient id="paint3_linear_4022_231" x1="-2.80979" y1="-7.11755" x2="4.37377" y2="5.27562" gradientUnits="userSpaceOnUse">
<stop stop-color="#32A071"/>
<stop offset="0.0685" stop-color="#2DA771"/>
<stop offset="0.4762" stop-color="#15CF74"/>
<stop offset="0.8009" stop-color="#06E775"/>
<stop offset="1" stop-color="#00F076"/>
</linearGradient>
</defs>
</svg>
