<svg width="131" height="127" viewBox="0 0 131 127" fill="none" xmlns="http://www.w3.org/2000/svg">
<path d="M0.115952 73.1875C0.115952 102.503 23.881 126.268 53.1966 126.268C82.5123 126.268 106.277 102.503 106.277 73.1875C106.277 43.872 82.5123 20.1072 53.1966 20.1072C23.881 20.1072 0.115952 43.872 0.115952 73.1875Z" fill="#FF6600"/>
<g filter="url(#filter0_d_4027_2093)">
<path d="M96.0322 4C93.3325 3.9991 90.6909 4.77765 88.4295 6.2407C86.168 7.70376 84.3845 9.78811 83.2963 12.2396C82.2082 14.6911 81.8624 17.4037 82.3012 20.0468C82.74 22.6899 83.9444 25.1492 85.7675 27.1249C85.8228 27.1855 85.8839 27.2433 85.9421 27.3039L83.3025 34.0179L91.7424 31.0695L91.7628 30.9482C93.1073 31.3756 94.5217 31.9243 96.0089 31.9243C103.692 31.9243 109.938 25.4298 109.938 17.8033C109.938 14.1434 108.473 10.6334 105.865 8.04494C103.258 5.45648 99.7207 4.00153 96.0322 4Z" fill="white"/>
</g>
<path d="M94.9123 21.3368L94.9166 21.0825C94.9301 20.2885 95.0208 19.6399 95.1999 19.1497C95.3813 18.6532 95.743 18.1228 96.2641 17.5591L96.2689 17.5539L96.269 17.554L97.5657 16.2288C98.0857 15.6441 98.3327 15.0332 98.3327 14.3906C98.3327 13.7454 98.1632 13.2754 97.8544 12.9469L97.8529 12.9454L97.8529 12.9454C97.5491 12.6168 97.0949 12.4349 96.4476 12.4349C95.8171 12.4349 95.3372 12.5994 94.9824 12.9058C94.633 13.2076 94.4534 13.6114 94.4534 14.1445V14.3945H94.2034H92.3662H92.1131L92.1162 14.1413C92.1303 13.0125 92.538 12.0861 93.3441 11.3857L94.9123 21.3368ZM94.9123 21.3368H95.1666M94.9123 21.3368H95.1666M95.1666 21.3368H97.0037H97.2537V21.0868C97.2537 20.1303 97.4844 19.436 97.9091 18.9656L98.9863 17.9072L98.9864 17.9072M95.1666 21.3368L98.9864 17.9072M98.9864 17.9072L98.9914 17.9021M98.9864 17.9072L98.9914 17.9021M98.9914 17.9021C100.093 16.756 100.67 15.5648 100.67 14.3315C100.67 13.1164 100.301 12.1328 99.5398 11.4131C98.7855 10.6871 97.7432 10.3396 96.4476 10.3396C95.1954 10.3396 94.1533 10.6819 93.3443 11.3856L98.9914 17.9021ZM95.1705 23.3014L95.1702 23.3018C94.9449 23.5499 94.8372 23.8582 94.8372 24.2083C94.8372 24.5584 94.9449 24.8667 95.1702 25.1149L95.1701 25.115L95.1762 25.1213C95.4231 25.3749 95.7687 25.4824 96.1696 25.4824C96.5704 25.4824 96.9161 25.3749 97.163 25.1213L97.163 25.1213L97.1659 25.1182C97.3992 24.8704 97.5119 24.561 97.5119 24.2083C97.5119 23.8563 97.3996 23.5475 97.1673 23.2999C96.9215 23.031 96.5744 22.9145 96.1696 22.9145C95.764 22.9145 95.4164 23.0315 95.1705 23.3014Z" fill="#FF6600" stroke="#FF6600" stroke-width="0.5"/>
<path d="M68.0272 57.1972C68.0272 57.1972 58.8684 85.0292 66.4046 113.655C66.4046 113.655 68.1039 119.845 77.7071 115.989L108.104 91.0838L102.978 85.0681C102.978 85.0681 84.17 95.6949 78.5559 98.7817C78.5559 98.7817 82.5355 72.101 78.0741 63.7837C76.076 60.0587 74.6387 56.6253 69.8049 56.8146C69.1954 56.8413 68.5938 56.9708 68.0272 57.1972Z" fill="#808080"/>
<path d="M86.5098 108.615L83.8065 96.25L77.7241 98.8532L80.4273 113.821L86.5098 108.615Z" fill="#636363"/>
<path d="M42.4398 27.4285C42.4398 27.4285 27.4655 44.6698 30.5539 58.5991L35.6909 62.5713L46.9112 58.9931L46.9736 40.6976L42.8141 28.7596L42.4398 27.4285Z" fill="#333333"/>
<path d="M30.867 54.6718C30.867 54.6718 34.3759 65.0921 37.7041 77.9139C38.9162 82.7062 40.0965 87.837 41.0215 92.8938C41.1385 93.4968 41.2448 94.0998 41.3512 94.7028C42.3226 99.9404 42.8737 105.247 42.9993 110.571C43.0385 112.745 42.8927 114.918 42.5633 117.067C42.5633 117.067 47.3694 117.86 53.7492 118.421H54.132L54.8444 118.484C56.971 118.664 59.3422 118.802 61.7027 118.865C66.5183 119.103 71.3457 118.819 76.0997 118.019L77.0886 117.807C78.0019 117.611 78.9007 117.353 79.7787 117.035L80.5975 108.466C80.6826 101.124 80.7641 93.7789 80.842 86.43C82.3934 85.0078 83.5007 83.1716 84.0319 81.1405C85.7757 74.0525 78.8856 67.6205 77.9711 66.7847C77.3441 66.2162 76.6799 65.6896 75.9828 65.2085C76.1745 63.9674 76.1745 62.7045 75.9828 61.4635C75.6808 59.6779 74.8981 58.0072 73.718 56.6289C69.3691 51.424 60.6181 50.4507 60.6181 50.4507L47.412 49.5092L45.732 49.3928C43.2105 49.9489 40.725 50.6555 38.2889 51.5086L37.2256 51.8895C35.0546 52.6958 32.9316 53.6248 30.867 54.6718Z" fill="#808080"/>
<path d="M59.7866 51.5894L58.6883 47.1965L60.0831 47.2844L60.8848 48.2947V50.4912L59.7866 51.5894Z" fill="#808080"/>
<path d="M66.7419 58.9109L76.2598 66.2323L66.7419 58.9109Z" fill="#E6E6E6"/>
<path d="M60.1523 53.141C59.2982 54.1472 58.2075 54.9283 56.9769 55.4151C55.7462 55.9019 54.4138 56.0792 53.0977 55.9313C51.7816 55.7835 50.5225 55.3151 49.4322 54.5676C48.3419 53.8201 47.454 52.8167 46.8474 51.6464C46.7248 46.8796 46.6022 42.1092 46.4796 37.3352V36.5072L46.4039 34.9374L46.2416 31.2601L59.0706 30.3569L59.579 42.5285L59.8927 49.8938L60.1523 53.141Z" fill="#F9C6B9"/>
<path d="M59.4199 51.5893C54.8404 48.7595 51.4527 44.3294 49.9021 39.1428L59.1169 43.0949L59.4199 51.5893Z" fill="#DB7C6F"/>
<path d="M69.1622 19.1901C70.2701 25.7001 71.1376 30.7962 69.4757 35.9557C68.9113 37.7388 66.8314 44.3965 62.0549 45.5571C57.2783 46.7177 50.7354 42.033 46.5547 33.645L45.5095 19.7388L54.8012 12.7856L67.9706 13.5981C68.3051 14.8958 68.7545 16.8267 69.1622 19.1901Z" fill="#F9C6B9"/>
<path d="M42.1722 29.474C41.2523 27.934 38.5667 22.9764 40.1315 17.639C42.4471 9.72799 52.587 5.25561 60.6756 7.51289C67.3052 9.3588 70.5512 15.1602 71.249 16.5948C72.1198 17.1103 72.847 17.8357 73.3637 18.7044C74.4211 20.6241 74.1039 22.7443 73.554 24.9699C72.5918 28.8402 71.2495 32.6065 69.5467 36.2142C69.9619 34.0139 70.2094 31.7854 70.2869 29.5478C70.4983 23.3139 69.5784 22.4173 69.1767 22.1642C67.9924 21.352 66.2795 21.8266 65.0953 22.1642C63.4105 22.6314 61.8718 23.5169 60.6228 24.7379C58.8042 26.7315 55.0823 28.8833 46.7188 29.5584L42.1722 29.474Z" fill="#333333"/>
<path d="M63.0811 27.9438C62.7619 27.9409 62.4434 27.9178 62.1278 27.8748C61.822 27.844 61.5184 27.7979 61.2183 27.7367C60.4918 27.6401 59.7534 27.6401 59.0269 27.7367C58.3813 27.8868 57.7264 28.0021 57.0655 28.0819L56.0575 28.1608C55.7178 28.1608 55.3781 28.1608 55.0275 28.1608C55.3134 27.9859 55.6138 27.8309 55.926 27.6973C56.2245 27.5565 56.5318 27.4314 56.8464 27.3225C57.4597 27.0969 58.0894 26.909 58.731 26.7604C59.6034 26.6199 60.5024 26.7124 61.3169 27.0267C61.5909 27.1549 61.8538 27.2929 62.1168 27.4409C62.4492 27.5909 62.7712 27.7589 63.0811 27.9438Z" fill="#333333"/>
<path d="M66.7446 28.0573C67.1526 27.8612 67.5711 27.7142 67.9896 27.5426C68.408 27.371 68.8161 27.2239 69.2346 27.0891C69.633 26.8826 70.0566 26.7503 70.49 26.6969C70.7143 26.6934 70.9384 26.7139 71.1596 26.7582C71.3991 26.7979 71.632 26.8805 71.8501 27.0033C71.8611 27.0188 71.8672 27.0383 71.8672 27.0585C71.8672 27.0786 71.8611 27.0982 71.8501 27.1136C71.6787 27.3145 71.4852 27.4876 71.2746 27.6284C71.0779 27.7571 70.8712 27.8638 70.6574 27.947C70.2329 28.0663 69.7958 28.1117 69.3601 28.0818C68.9312 28.0818 68.4917 28.1431 68.0628 28.1554C67.6339 28.1676 67.184 28.1554 66.7446 28.1554V28.0941C66.7414 28.0821 66.7414 28.0693 66.7446 28.0573Z" fill="#333333"/>
<path d="M47.899 37.0199C47.6999 37.2229 47.4562 37.3863 47.1831 37.4997C46.9101 37.6132 46.6139 37.6742 46.3132 37.6789L46.242 36.0956L47.4212 35.4824L48.4377 35.7021C48.4523 36.1873 48.2594 36.659 47.899 37.0199Z" fill="#D18F88"/>
<path d="M48.5262 31.9726C49.1905 33.3705 49.6152 35.8976 48.3847 36.7041C47.3828 37.3708 45.586 36.5213 44.6821 35.8438C43.9093 35.2398 43.3336 34.4245 43.0269 33.4996C42.7446 32.9189 42.5926 32.2849 42.5813 31.6409C42.57 30.9969 42.6997 30.3581 42.9615 29.7681C43.3427 29.0799 44.2247 28.0798 45.1395 28.1658C45.8147 28.2411 46.3483 28.9724 47.4264 30.4348C47.8401 30.9129 48.2083 31.4277 48.5262 31.9726Z" fill="#F9C6B9"/>
<path d="M46.7126 31.6019C46.8372 32.4356 46.0512 32.7802 46.1854 33.6028C46.3196 34.4253 47.0768 34.6477 46.9618 35.0812C46.8468 35.5147 46.4058 35.4813 46.3579 35.4813C46.1468 35.486 45.9373 35.4378 45.7438 35.34C45.5502 35.2421 45.3772 35.097 45.2364 34.9144C44.8579 34.5466 44.5673 34.0719 44.3929 33.5361C44.2093 33.2109 44.0945 32.8401 44.0578 32.4538C44.0212 32.0674 44.0637 31.6765 44.182 31.3129C44.3037 31.0449 44.4816 30.8168 44.6994 30.6497C44.9172 30.4826 45.1679 30.3819 45.4281 30.3569C45.7322 30.3649 46.0249 30.4925 46.2583 30.7187C46.4916 30.9449 46.6518 31.2563 46.7126 31.6019Z" fill="#DB7C6F"/>
<path d="M63.0811 18.6428C61.677 20.7055 59.7902 22.3491 57.6046 23.4134C56.5161 23.9386 55.3797 24.3455 54.213 24.6279C53.0338 24.9052 51.8383 25.099 50.6346 25.2078C51.2466 25.2078 51.8585 25.2625 52.4705 25.2078C53.0824 25.1531 53.6944 25.1312 54.296 24.9999C55.5127 24.8037 56.6988 24.4357 57.8224 23.9057C58.9582 23.3458 60.0072 22.608 60.934 21.7174C61.8363 20.8533 62.5662 19.808 63.0811 18.6428Z" fill="#808080"/>
<path d="M43.1837 23.7681C42.5967 24.6374 41.9223 25.4455 41.1707 26.1798C40.3843 26.9174 39.5342 27.5851 38.6302 28.1754C38.14 28.5194 37.7471 28.9824 37.4891 29.52C37.3606 29.8133 37.2911 30.1287 37.2846 30.4484C37.2846 30.7793 37.3599 31.046 37.3814 31.2915C37.4845 32.3195 37.3444 33.3572 36.9724 34.3222C36.7858 34.7831 36.4631 35.1774 36.0466 35.4534C35.5888 35.6858 35.0857 35.8168 34.5718 35.8376C33.9871 35.8735 33.4275 36.0858 32.9678 36.4458C32.5466 36.8346 32.2318 37.3229 32.0528 37.8651C31.7307 38.9015 31.5781 39.9824 31.6007 41.0666C31.611 42.1366 31.6793 43.2053 31.8052 44.2681C31.7204 43.2031 31.6989 42.1341 31.7406 41.0666C31.7505 39.9938 31.9397 38.93 32.3004 37.9185C32.4884 37.4498 32.7919 37.0352 33.1831 36.7126C33.5995 36.4123 34.1 36.2482 34.6149 36.2431C35.1919 36.2409 35.7614 36.1134 36.2834 35.8696C36.7874 35.5612 37.1881 35.1119 37.4353 34.5783C37.8982 33.5351 38.1013 32.3968 38.0273 31.2595C37.9077 30.7864 37.9493 30.2873 38.1458 29.8402C38.3687 29.4063 38.7028 29.0383 39.1146 28.773C40.0622 28.2144 40.959 27.5753 41.7951 26.8628C42.6283 26.1119 43.3821 25.2788 44.0449 24.3763L43.1837 23.7681Z" fill="#333333"/>
<path d="M40.3848 34.0181C39.5736 35.3231 38.8248 36.6597 38.1072 38.0174C37.3896 39.3751 36.7345 40.7538 36.0273 42.143C35.3201 43.5323 34.8001 44.9636 34.2697 46.4055C33.7191 47.8441 33.3149 49.3357 33.0633 50.8574C33.5019 49.3908 34.0298 47.9532 34.6441 46.5528C35.2369 45.153 35.8401 43.7428 36.4953 42.343L40.3848 34.0181Z" fill="#808080"/>
<path d="M46.9207 44.2681C47.1027 44.2699 47.2833 44.2337 47.4513 44.1615C47.6193 44.0894 47.7713 43.9829 47.898 43.8485C48.7464 42.943 48.596 40.7124 47.4469 37.2229C47.4347 37.1884 47.4101 37.16 47.3781 37.1435C47.3462 37.1271 47.3093 37.1239 47.2751 37.1346C47.243 37.1491 47.2168 37.1747 47.2011 37.207C47.1854 37.2393 47.1812 37.2761 47.1892 37.3113C48.5745 41.4964 48.2631 43.0644 47.7047 43.6386C47.568 43.7825 47.3958 43.8853 47.2066 43.9359C47.0173 43.9865 46.8182 43.983 46.6307 43.9257C44.4829 43.8374 43.2908 43.3074 42.9579 42.3467C42.1632 39.9946 46.8348 35.7212 46.8777 35.7212C46.9027 35.6944 46.9166 35.6588 46.9166 35.6218C46.9166 35.5847 46.9027 35.5491 46.8777 35.5224C46.8517 35.4967 46.8171 35.4824 46.7811 35.4824C46.745 35.4824 46.7104 35.4967 46.6844 35.5224C46.4804 35.6991 41.8195 39.9394 42.6894 42.446C43.0545 43.5503 44.3647 44.1135 46.5663 44.2129C46.6813 44.2483 46.8006 44.2669 46.9207 44.2681Z" fill="#F15A24"/>
<path d="M62.1561 75.3426L44.33 52.6402C45.8922 53.8891 47.708 54.7897 49.652 55.2798C52.6835 56.1542 55.934 55.8288 58.7148 54.3725C60.2329 53.5055 61.516 52.289 62.4556 50.8255L71.0465 75.3454L62.1561 75.3426Z" fill="#E4E4E4"/>
<path fill-rule="evenodd" clip-rule="evenodd" d="M55.0273 73.9198C55.0273 73.7176 54.9126 73.5537 54.7711 73.5537H45.0336C44.8921 73.5537 44.7773 73.7176 44.7773 73.9198C44.7773 74.122 44.8921 74.2859 45.0336 74.2859H54.7711C54.9126 74.2859 55.0273 74.122 55.0273 73.9198Z" fill="#575757"/>
<path fill-rule="evenodd" clip-rule="evenodd" d="M48.4378 69.8926C48.0334 69.8926 47.7056 70.2204 47.7056 70.6247V73.5533H49.1699V70.6247C49.1699 70.2204 48.8421 69.8926 48.4378 69.8926Z" fill="white"/>
<mask id="mask0_4027_2093" style="mask-type:alpha" maskUnits="userSpaceOnUse" x="0" y="20" width="107" height="107">
<path d="M0.116623 73.9197C0.116623 103.235 23.8815 127 53.197 127C82.5125 127 106.277 103.235 106.277 73.9197C106.277 44.6042 82.5125 20.8394 53.197 20.8394C23.8815 20.8394 0.116623 44.6042 0.116623 73.9197Z" fill="#FF6600"/>
</mask>
<g mask="url(#mask0_4027_2093)">
<path d="M72.711 61.8394C74.1377 84.5432 75.5645 107.24 76.9912 129.929L54.5201 128.812C52.7438 106.868 50.9603 84.9153 49.1698 62.9556L72.711 61.8394Z" fill="#E4E4E4"/>
<path d="M33.1696 129.526C33.1023 129.646 33.0658 129.78 33.0632 129.918C33.0606 130.055 33.0922 130.191 33.155 130.313C33.2178 130.435 33.3099 130.539 33.4229 130.617C33.5359 130.694 33.6663 130.742 33.8023 130.756L34.4877 130.819L47.3728 132.155L61.0805 133.586C61.1499 133.596 61.2206 133.58 61.279 133.541C61.3374 133.502 61.3793 133.443 61.3968 133.374C65.3545 117.942 66.2963 101.885 64.17 86.0928C63.467 80.4389 62.7641 74.7849 62.0611 69.1309L57.0525 62.4203L47.9106 50.1653L46.2446 47.9285L37.8091 52.5506L34.6458 54.268L47.299 68.0496C46.5504 71.3995 45.7912 74.7389 45.0426 78.0889C43.9389 83.0361 42.8353 87.9586 41.7316 92.8564C41.6684 93.1108 41.6156 93.3759 41.5524 93.6303C41.6684 94.2346 41.7738 94.8388 41.8793 95.4431C42.3643 98.263 42.765 101.062 43.0497 103.733C43.967 109.034 44.3993 109.702 44.1041 111.515C43.5874 115.077 41.3837 116.349 37.9989 120.992C36.3962 123.854 34.7864 126.699 33.1696 129.526Z" fill="#808080"/>
<path d="M65.7995 50.0476L59.4202 47.9285C61.9081 54.9921 64.389 62.0558 66.8627 69.1195C67.9858 74.354 68.6967 79.6679 68.9891 85.0127C69.255 89.7701 68.9891 90.1833 68.9891 97.7273C69.0529 107.624 69.6271 115.422 70.0524 121.037C70.3713 125.276 71.7854 129.98 72.0831 132.82C72.0945 132.942 72.1325 133.061 72.1945 133.167C72.2566 133.274 72.3411 133.365 72.4423 133.436C72.5435 133.507 72.6589 133.554 72.7804 133.576C72.902 133.598 73.0269 133.593 73.1463 133.561L85.7773 130.923C81.9285 111.343 77.059 90.7767 73.242 71.2386C74.6596 68.7734 76.0773 66.3011 77.4949 63.8217L65.7995 50.0476Z" fill="#808080"/>
<path d="M32.4079 129.548C32.3525 129.666 32.3265 129.796 32.3319 129.926C32.3374 130.056 32.3741 130.183 32.4392 130.296C32.5043 130.409 32.5957 130.505 32.7059 130.576C32.8162 130.647 32.942 130.691 33.0729 130.704L33.8988 130.789L47.0056 132.125C49.9452 127.77 52.1007 122.945 53.3767 117.864C53.9578 115.505 54.3594 113.105 54.578 110.686C55.2792 103.975 55.0808 97.2012 53.9881 90.5412C56.5418 89.4602 58.8779 87.9338 60.8848 86.035C58.425 86.6826 55.8365 86.6826 53.3767 86.035C52.5383 85.6593 51.7344 85.2123 50.9742 84.6991C48.4254 82.9361 46.2712 80.6732 44.646 78.0512C41.7615 73.2865 39.784 68.0401 38.8112 62.5713L37.7386 78.645C38.8112 84.1053 39.7872 88.463 40.4951 91.3682C41.8787 97.136 42.6403 99.5852 42.6403 103.731C42.5486 109.835 40.7842 115.801 37.5348 120.992C35.5373 123.665 33.8195 126.532 32.4079 129.548Z" fill="#636363"/>
</g>
<path d="M56.9437 68.4287C57.0199 68.4282 57.0928 68.3977 57.1464 68.3438C57.196 68.2925 57.2236 68.224 57.2236 68.1528C57.2236 68.0816 57.196 68.0132 57.1464 67.9618C56.9864 67.8239 41.1456 54.1678 40.0789 53.1068C40.0275 53.0685 39.964 53.0499 39.9 53.0544C39.8359 53.0589 39.7757 53.0863 39.7303 53.1314C39.6849 53.1766 39.6574 53.2365 39.6529 53.3002C39.6483 53.3639 39.667 53.4271 39.7055 53.4781C40.7723 54.5392 56.133 67.7815 56.7731 68.3332C56.8157 68.3854 56.8767 68.4196 56.9437 68.4287Z" fill="#575757"/>
<path d="M69.4693 67.6965C69.5331 67.6835 69.5896 67.6439 69.6265 67.5862C69.6633 67.5284 69.6775 67.4573 69.666 67.3882L67.227 51.0739C67.2151 51.005 67.1784 50.944 67.125 50.9042C67.0715 50.8643 67.0057 50.849 66.9418 50.8614C66.9106 50.8665 66.8807 50.8784 66.8538 50.8962C66.8269 50.9141 66.8037 50.9375 66.7853 50.9653C66.767 50.993 66.754 51.0245 66.7471 51.0577C66.7402 51.091 66.7395 51.1254 66.7451 51.159L69.2235 67.4308C69.2259 67.5004 69.2526 67.5665 69.2982 67.6157C69.3438 67.665 69.4049 67.6938 69.4693 67.6965Z" fill="#575757"/>
<path d="M75.9868 66.2202C76.0359 66.2363 76.0886 66.2363 76.1376 66.2202C76.1676 66.2 76.1934 66.174 76.2135 66.1435C76.2336 66.113 76.2475 66.0787 76.2545 66.0426C76.2616 66.0065 76.2615 65.9694 76.2544 65.9333C76.2473 65.8972 76.2332 65.863 76.2131 65.8326L70.9009 57.571C70.8609 57.5093 70.7986 57.4665 70.7279 57.452C70.6572 57.4374 70.5837 57.4524 70.5237 57.4935C70.4637 57.5346 70.4221 57.5985 70.4079 57.6712C70.3938 57.7439 70.4083 57.8194 70.4483 57.8811L75.7605 66.1426C75.7904 66.1719 75.8261 66.194 75.8652 66.2074C75.9043 66.2208 75.9459 66.2252 75.9868 66.2202Z" fill="#575757"/>
<path d="M44.0449 14.25C43.5839 15.0803 43.1869 15.9502 42.858 16.851C42.5258 17.7506 42.2612 18.6777 42.0667 19.6233C41.8773 20.5793 41.8107 21.5591 41.8688 22.5348C41.857 23.5279 42.1887 24.49 42.7986 25.2321C42.3681 24.4096 42.1752 23.4664 42.2447 22.5241C42.2849 21.5866 42.404 20.6551 42.6008 19.7411C42.9925 17.8845 43.4746 16.0516 44.0449 14.25Z" fill="#808080"/>
<path d="M76.1978 76.4824H86.3205C86.464 76.4791 86.6062 76.5098 86.7353 76.572C86.8644 76.6342 86.9766 76.726 87.0625 76.8399C87.1485 76.9537 87.2057 77.0863 87.2294 77.2265C87.2531 77.3667 87.2426 77.5105 87.1988 77.6458L80.1283 97.8482C80.0624 98.0256 79.9426 98.1785 79.7852 98.2856C79.6279 98.3927 79.4409 98.4488 79.25 98.4462H69.1273C68.9838 98.4495 68.8416 98.4188 68.7125 98.3566C68.5835 98.2945 68.4713 98.2026 68.3853 98.0888C68.2994 97.9749 68.2421 97.8423 68.2184 97.7021C68.1947 97.5619 68.2052 97.4182 68.249 97.2828L75.3195 77.0913C75.3836 76.9118 75.5027 76.7567 75.6601 76.6475C75.8176 76.5383 76.0056 76.4806 76.1978 76.4824Z" fill="#4D4D4D"/>
<path d="M83.6503 77.9471H85.6003C85.6282 77.9455 85.6561 77.95 85.6815 77.9601C85.7069 77.9702 85.7289 77.9856 85.7455 78.005C85.762 78.0244 85.7727 78.047 85.7764 78.0708C85.7801 78.0947 85.7768 78.1189 85.7668 78.1413L84.4113 81.5049C84.3991 81.5346 84.3766 81.5603 84.3468 81.5786C84.317 81.5969 84.2814 81.6069 84.2448 81.6072H82.2948C82.2669 81.6088 82.239 81.6043 82.2136 81.5942C82.1882 81.5841 82.1662 81.5686 82.1496 81.5493C82.1331 81.5299 82.1224 81.5073 82.1187 81.4834C82.1149 81.4596 82.1183 81.4354 82.1283 81.4129L83.4838 78.0391C83.4991 78.0121 83.5227 77.9893 83.552 77.973C83.5814 77.9568 83.6154 77.9478 83.6503 77.9471Z" fill="#B3B3B3"/>
<path d="M60.8852 94.9302C63.1274 92.7415 65.5132 90.7072 68.0265 88.8411C69.6831 87.5836 71.4668 86.5056 73.3479 85.6251C74.341 85.0807 75.4219 84.7178 76.5407 84.553C77.2112 84.4887 78.2116 84.553 81.8621 85.6251C82.8306 85.9252 83.6607 86.2039 84.3312 86.4398C84.5495 86.5163 84.7371 86.6622 84.8658 86.8556C84.9944 87.049 85.0571 87.2794 85.0443 87.5118C85.0188 87.7776 84.9653 88.04 84.8846 88.2944C84.6669 88.8619 84.3655 89.3932 83.9906 89.8702C83.1498 91.2424 83.5436 91.8749 82.9264 93.0863C82.4478 94.0009 81.7058 94.7483 80.7978 95.2303C79.8612 95.5198 78.3819 95.9271 76.5407 96.3023C73.7736 96.8812 72.1452 96.9563 69.0908 97.3743C67.6008 97.5887 65.3977 97.9211 62.7051 98.4464L60.8852 94.9302Z" fill="#F9C6B9"/>
<path d="M126.369 72.5147L72.8473 73.8708C72.3242 73.8839 71.8174 74.0545 71.3942 74.36C70.9709 74.6655 70.6513 75.0914 70.4778 75.5811L57.6014 111.804C57.4629 112.194 57.4221 112.613 57.4827 113.023C57.5432 113.432 57.7032 113.821 57.9489 114.156C58.1946 114.491 58.5187 114.761 58.8932 114.945C59.2678 115.128 59.6816 115.218 60.0991 115.207L113.62 113.851C114.143 113.838 114.65 113.667 115.074 113.362C115.497 113.056 115.816 112.63 115.99 112.141L128.867 75.9278C129.007 75.5363 129.049 75.1169 128.99 74.7058C128.93 74.2946 128.77 73.9042 128.525 73.5681C128.279 73.232 127.954 72.9605 127.578 72.7769C127.202 72.5934 126.787 72.5034 126.369 72.5147Z" fill="#CACACA"/>
<path d="M76.2459 111.288L35.9922 112.356L36.0692 115.284L76.3229 114.215L76.2459 111.288Z" fill="#CACACA"/>
<path d="M98.6782 95.3418C99.7062 93.1443 99.0517 90.6752 97.2165 89.8271C95.3812 88.979 93.0601 90.0729 92.0322 92.2705C91.0042 94.468 91.6587 96.9371 93.4939 97.7852C95.3292 98.6333 97.6503 97.5394 98.6782 95.3418Z" fill="white"/>
<path d="M31.3442 54.6239C31.3442 54.6239 16.5081 82.4059 18.6276 114.462C18.6276 114.462 19.1574 121.407 29.7546 119.27L61.9828 101.105L63.0811 97.6188L62.6059 92.557C62.6059 92.557 40.3518 98.9682 33.9935 101.105C33.9935 101.105 42.4712 81.8716 40.3518 63.7065C40.2564 63.2898 38.2324 55.3719 33.2411 54.5812C32.6111 54.4845 31.9693 54.499 31.3442 54.6239Z" fill="#808080"/>
<path d="M18.7195 94.7856C18.4068 100.006 18.3852 104.451 18.4499 107.874C18.5577 113.829 18.9244 115.998 20.6066 117.444C22.6123 119.177 25.5238 119.049 27.2061 118.805" stroke="#575757" stroke-width="0.5" stroke-miterlimit="10" stroke-linecap="round"/>
<path d="M60.8848 101.375L47.7062 108.697" stroke="#575757" stroke-width="0.5" stroke-miterlimit="10" stroke-linecap="round"/>
<path d="M46.9736 96.25L33.7951 100.643" stroke="#575757" stroke-width="0.5" stroke-miterlimit="10" stroke-linecap="round"/>
<path d="M37.7011 91.8571C37.7536 91.8548 37.8041 91.834 37.8453 91.7978C37.8865 91.7616 37.9163 91.7119 37.9304 91.6557C43.0518 68.4435 38.5993 60.1126 38.4082 59.7734C38.3763 59.7133 38.3242 59.6695 38.2634 59.6516C38.2026 59.6338 38.1379 59.6433 38.0833 59.678C38.03 59.7171 37.9923 59.7775 37.9781 59.8465C37.9639 59.9156 37.9742 59.9881 38.0069 60.049C38.0069 60.049 39.1534 62.1688 39.6503 67.0763C40.1185 71.6127 40.1089 79.5303 37.4622 91.5285C37.4552 91.5626 37.4543 91.598 37.4596 91.6325C37.465 91.6669 37.4764 91.6999 37.4933 91.7295C37.5101 91.759 37.5321 91.7846 37.558 91.8047C37.5838 91.8248 37.613 91.839 37.6438 91.8465L37.7011 91.8571Z" fill="#575757"/>
<path d="M59.7917 31.8213H59.7817C59.1779 31.8213 58.6885 31.3542 58.6885 30.7781V29.9359C58.6885 29.3598 59.1779 28.8927 59.7817 28.8927H59.7917C60.3955 28.8927 60.8849 29.3598 60.8849 29.9359V30.7781C60.8849 31.3542 60.3955 31.8213 59.7917 31.8213Z" fill="#333333"/>
<path d="M67.8457 31.8213H67.8331C67.2301 31.8213 66.7412 31.4485 66.7412 30.9887V29.7253C66.7412 29.2655 67.2301 28.8927 67.8331 28.8927H67.8457C68.4488 28.8927 68.9376 29.2655 68.9376 29.7253V30.9887C68.9376 31.4485 68.4488 31.8213 67.8457 31.8213Z" fill="#333333"/>
<path d="M63.9219 36.9463C63.1009 36.9272 62.3018 36.6758 61.6162 36.2209L62.0752 35.5725C62.4509 35.827 62.8751 36.0004 63.3208 36.0817C63.7666 36.163 64.2243 36.1506 64.665 36.0451C65.0638 35.8892 65.4333 35.6662 65.7577 35.3857L65.5829 35.1329C65.0587 34.4428 64.6863 33.6486 64.4901 32.8029C64.2201 31.0101 64.3206 29.1805 64.7852 27.4285L65.5501 27.6593C65.1247 29.2867 65.0281 30.9834 65.266 32.649C65.4478 33.3747 65.775 34.0553 66.2276 34.6493C66.3697 34.8581 66.4899 35.045 66.5991 35.2318L66.7412 35.4846L66.5445 35.6934C66.0703 36.1844 65.491 36.5603 64.8507 36.7925C64.5506 36.8906 64.2375 36.9425 63.9219 36.9463Z" fill="#DB7C6F"/>
<path d="M62.617 39.8752C62.0394 39.8761 61.4639 39.8138 60.9039 39.6897C60.156 39.5164 59.4471 39.2327 58.8079 38.8508C58.7478 38.8145 58.7065 38.7588 58.6933 38.6959C58.6801 38.6329 58.6959 38.568 58.7374 38.5153C58.7579 38.4892 58.784 38.4669 58.8144 38.4497C58.8447 38.4324 58.8787 38.4206 58.9142 38.4149C58.986 38.4033 59.0602 38.4172 59.1203 38.4535C59.7077 38.8031 60.3585 39.0629 61.045 39.2217C62.0801 39.4508 63.164 39.4508 64.1992 39.2217C64.27 39.2053 64.3453 39.2143 64.4086 39.2465C64.472 39.2788 64.518 39.3318 64.5367 39.3939C64.5554 39.456 64.5453 39.522 64.5084 39.5775C64.4715 39.633 64.4111 39.6733 64.3402 39.6897C63.7766 39.8128 63.1979 39.875 62.617 39.8752Z" fill="#DB7C6F"/>
<defs>
<filter id="filter0_d_4027_2093" x="78.1162" y="0" width="35.8215" height="38.0178" filterUnits="userSpaceOnUse" color-interpolation-filters="sRGB">
<feFlood flood-opacity="0" result="BackgroundImageFix"/>
<feColorMatrix in="SourceAlpha" type="matrix" values="0 0 0 0 0 0 0 0 0 0 0 0 0 0 0 0 0 0 127 0" result="hardAlpha"/>
<feOffset/>
<feGaussianBlur stdDeviation="2"/>
<feColorMatrix type="matrix" values="0 0 0 0 0 0 0 0 0 0 0 0 0 0 0 0 0 0 0.5 0"/>
<feBlend mode="normal" in2="BackgroundImageFix" result="effect1_dropShadow_4027_2093"/>
<feBlend mode="normal" in="SourceGraphic" in2="effect1_dropShadow_4027_2093" result="shape"/>
</filter>
</defs>
</svg>
