<svg width="88" height="32" viewBox="0 0 88 32" fill="none" xmlns="http://www.w3.org/2000/svg">
<rect width="88" height="32" rx="4" fill="#279F00"/>
<path d="M28.749 16.0001L29.853 14.0921C29.9857 13.8625 30.0218 13.5896 29.9533 13.3335C29.8849 13.0773 29.7175 12.8588 29.488 12.7261L27.578 11.6221V9.42206C27.578 9.15684 27.4727 8.90249 27.2851 8.71495C27.0976 8.52741 26.8432 8.42206 26.578 8.42206H24.379L23.276 6.51306C23.1428 6.28397 22.9247 6.11656 22.669 6.04706C22.5422 6.01267 22.4098 6.00381 22.2795 6.02097C22.1492 6.03814 22.0236 6.081 21.91 6.14706L20 7.25106L18.09 6.14606C17.8603 6.01346 17.5874 5.97752 17.3312 6.04616C17.075 6.1148 16.8566 6.28238 16.724 6.51206L15.62 8.42206H13.421C13.1558 8.42206 12.9014 8.52741 12.7139 8.71495C12.5264 8.90249 12.421 9.15684 12.421 9.42206V11.6211L10.511 12.7251C10.397 12.7906 10.2972 12.878 10.2171 12.9823C10.137 13.0866 10.0783 13.2057 10.0444 13.3327C10.0105 13.4597 10.002 13.5922 10.0194 13.7225C10.0369 13.8528 10.0799 13.9784 10.146 14.0921L11.25 16.0001L10.146 17.9081C10.014 18.1378 9.97818 18.4105 10.0464 18.6666C10.1146 18.9226 10.2812 19.1414 10.51 19.2751L12.42 20.3791V22.5781C12.42 22.8433 12.5254 23.0976 12.7129 23.2852C12.9004 23.4727 13.1548 23.5781 13.42 23.5781H15.62L16.724 25.4881C16.8125 25.6394 16.9389 25.7651 17.0908 25.8528C17.2426 25.9404 17.4147 25.9871 17.59 25.9881C17.764 25.9881 17.937 25.9421 18.091 25.8531L19.999 24.7491L21.909 25.8531C22.1386 25.9855 22.4114 26.0214 22.6675 25.953C22.9236 25.8846 23.142 25.7174 23.275 25.4881L24.378 23.5781H26.577C26.8422 23.5781 27.0966 23.4727 27.2841 23.2852C27.4717 23.0976 27.577 22.8433 27.577 22.5781V20.3791L29.487 19.2751C29.6008 19.2093 29.7005 19.1218 29.7804 19.0175C29.8603 18.9132 29.9189 18.7942 29.9528 18.6672C29.9867 18.5402 29.9953 18.4079 29.978 18.2776C29.9607 18.1473 29.9179 18.0218 29.852 17.9081L28.749 16.0001ZM17.499 10.9901C17.897 10.9902 18.2786 11.1484 18.5599 11.4299C18.8412 11.7114 18.9991 12.0931 18.999 12.4911C18.9989 12.889 18.8407 13.2706 18.5592 13.5519C18.2777 13.8332 17.896 13.9912 17.498 13.9911C17.1001 13.9909 16.7184 13.8327 16.4371 13.5512C16.1558 13.2697 15.9979 12.888 15.998 12.4901C15.9981 12.0921 16.1564 11.7105 16.4378 11.4292C16.7193 11.1479 17.1011 10.9899 17.499 10.9901ZM17.799 20.5901L16.199 19.3911L22.199 11.3911L23.799 12.5901L17.799 20.5901ZM22.499 20.9901C22.302 20.99 22.1069 20.9511 21.9248 20.8756C21.7428 20.8002 21.5774 20.6896 21.4381 20.5502C21.2989 20.4108 21.1884 20.2454 21.113 20.0633C21.0377 19.8812 20.9989 19.6861 20.999 19.4891C20.9991 19.292 21.038 19.0969 21.1134 18.9149C21.1889 18.7329 21.2995 18.5675 21.4389 18.4282C21.5782 18.2889 21.7437 18.1784 21.9258 18.1031C22.1078 18.0277 22.303 17.989 22.5 17.9891C22.898 17.9892 23.2796 18.1474 23.5609 18.4289C23.8422 18.7104 24.0001 19.0921 24 19.4901C23.9999 19.888 23.8417 20.2696 23.5602 20.5509C23.2787 20.8322 22.897 20.9902 22.499 20.9901Z" fill="white"/>
<path d="M42.0195 16.086H48.7395V17.85H42.0195V16.086ZM57.4583 13.622C57.4583 14.0887 57.365 14.56 57.1783 15.036C56.9917 15.512 56.7537 15.9787 56.4643 16.436C56.1843 16.884 55.867 17.3227 55.5123 17.752C55.167 18.1813 54.8263 18.578 54.4903 18.942L53.6923 19.516V19.586L54.7703 19.362H57.6683V21H51.2703V20.02C51.513 19.7773 51.7837 19.5067 52.0823 19.208C52.3903 18.9 52.6983 18.5733 53.0063 18.228C53.3143 17.8827 53.613 17.528 53.9023 17.164C54.201 16.7907 54.4623 16.422 54.6863 16.058C54.9103 15.694 55.0923 15.3393 55.2323 14.994C55.3723 14.6393 55.4423 14.3127 55.4423 14.014C55.4423 13.6593 55.335 13.3607 55.1203 13.118C54.9057 12.866 54.537 12.74 54.0143 12.74C53.6877 12.74 53.3563 12.81 53.0203 12.95C52.6843 13.0807 52.395 13.2533 52.1523 13.468L51.3403 12.068C51.7417 11.7693 52.1897 11.5173 52.6843 11.312C53.179 11.1067 53.7717 11.004 54.4623 11.004C54.8917 11.004 55.2883 11.06 55.6523 11.172C56.0257 11.284 56.343 11.4473 56.6043 11.662C56.875 11.8767 57.085 12.152 57.2343 12.488C57.3837 12.8147 57.4583 13.1927 57.4583 13.622ZM59.0938 16.086C59.0938 14.4153 59.4112 13.1507 60.0458 12.292C60.6898 11.4333 61.6092 11.004 62.8038 11.004C64.0825 11.004 65.0205 11.4287 65.6178 12.278C66.2245 13.118 66.5278 14.3873 66.5278 16.086C66.5278 17.7473 66.2058 19.0167 65.5618 19.894C64.9178 20.762 63.9985 21.196 62.8038 21.196C62.1692 21.196 61.6185 21.0793 61.1518 20.846C60.6852 20.6033 60.2978 20.2627 59.9898 19.824C59.6912 19.376 59.4672 18.8393 59.3178 18.214C59.1685 17.5793 59.0938 16.87 59.0938 16.086ZM61.1098 16.086C61.1098 17.1593 61.2405 18.0087 61.5018 18.634C61.7632 19.25 62.1972 19.558 62.8038 19.558C63.4198 19.558 63.8585 19.278 64.1198 18.718C64.3812 18.158 64.5118 17.2807 64.5118 16.086C64.5118 15.554 64.4792 15.078 64.4138 14.658C64.3578 14.2287 64.2645 13.8647 64.1338 13.566C64.0032 13.2673 63.8258 13.0387 63.6018 12.88C63.3872 12.7213 63.1212 12.642 62.8038 12.642C62.1972 12.642 61.7632 12.936 61.5018 13.524C61.2405 14.1027 61.1098 14.9567 61.1098 16.086ZM67.6873 13.412C67.6873 12.992 67.7526 12.6327 67.8833 12.334C68.014 12.0353 68.196 11.7927 68.4293 11.606C68.672 11.41 68.952 11.2653 69.2693 11.172C69.596 11.0787 69.9553 11.032 70.3473 11.032C70.73 11.032 71.0846 11.074 71.4113 11.158C71.738 11.242 72.018 11.382 72.2513 11.578C72.494 11.7647 72.6806 12.012 72.8113 12.32C72.942 12.6187 73.0073 12.9827 73.0073 13.412C73.0073 13.8507 72.942 14.2193 72.8113 14.518C72.6806 14.8167 72.494 15.064 72.2513 15.26C72.018 15.4467 71.738 15.582 71.4113 15.666C71.0846 15.75 70.73 15.792 70.3473 15.792C69.9553 15.792 69.596 15.75 69.2693 15.666C68.952 15.582 68.672 15.4467 68.4293 15.26C68.196 15.064 68.014 14.8167 67.8833 14.518C67.7526 14.2193 67.6873 13.8507 67.6873 13.412ZM69.4653 13.412C69.4653 13.776 69.5306 14.0607 69.6613 14.266C69.792 14.4713 70.0206 14.574 70.3473 14.574C70.6646 14.574 70.8886 14.4853 71.0193 14.308C71.15 14.1307 71.2153 13.832 71.2153 13.412C71.2153 12.992 71.15 12.6933 71.0193 12.516C70.8886 12.3387 70.6646 12.25 70.3473 12.25C70.03 12.25 69.8013 12.3387 69.6613 12.516C69.5306 12.6933 69.4653 12.992 69.4653 13.412ZM73.8613 18.62C73.8613 18.2 73.9266 17.8407 74.0573 17.542C74.188 17.2433 74.37 17.0007 74.6033 16.814C74.846 16.618 75.126 16.4733 75.4433 16.38C75.77 16.2867 76.1293 16.24 76.5213 16.24C76.904 16.24 77.2586 16.282 77.5853 16.366C77.912 16.45 78.192 16.59 78.4253 16.786C78.668 16.9727 78.8546 17.22 78.9853 17.528C79.116 17.8267 79.1813 18.1907 79.1813 18.62C79.1813 19.0587 79.116 19.4273 78.9853 19.726C78.8546 20.0247 78.668 20.272 78.4253 20.468C78.192 20.6547 77.912 20.79 77.5853 20.874C77.2586 20.958 76.904 21 76.5213 21C76.1293 21 75.77 20.958 75.4433 20.874C75.126 20.79 74.846 20.6547 74.6033 20.468C74.37 20.272 74.188 20.0247 74.0573 19.726C73.9266 19.4273 73.8613 19.0587 73.8613 18.62ZM75.6393 18.62C75.6393 18.984 75.7046 19.2687 75.8353 19.474C75.966 19.6793 76.1946 19.782 76.5213 19.782C76.8386 19.782 77.0626 19.6933 77.1933 19.516C77.324 19.3387 77.3893 19.04 77.3893 18.62C77.3893 18.2 77.324 17.9013 77.1933 17.724C77.0626 17.5467 76.8386 17.458 76.5213 17.458C76.204 17.458 75.9753 17.5467 75.8353 17.724C75.7046 17.9013 75.6393 18.2 75.6393 18.62ZM77.1933 10.948L78.2993 12.026L69.5493 21.196L68.4853 20.118L77.1933 10.948Z" fill="white"/>
</svg>
