<svg width="40" height="40" viewBox="0 0 40 40" fill="none" xmlns="http://www.w3.org/2000/svg">
<circle cx="20" cy="20" r="20" fill="white"/>
<path d="M29.4956 14.8088C29.6493 14.3422 29.4956 14 28.7688 14H26.3611C25.7485 14 25.4685 14.296 25.3148 14.6211C25.3148 14.6211 24.0907 17.3495 22.356 19.1186C21.7961 19.6333 21.5403 19.7959 21.2351 19.7959C21.0825 19.7959 20.8607 19.6333 20.8607 19.1667V14.8088C20.8607 14.2489 20.6839 14 20.1734 14H16.3901C16.008 14 15.7775 14.2589 15.7775 14.5057C15.7775 15.0356 16.6448 15.158 16.7337 16.6511V19.8902C16.7337 20.5997 16.5943 20.7291 16.2869 20.7291C15.4711 20.7291 13.4862 17.9907 12.3081 14.8559C12.0787 14.2468 11.847 14.001 11.2322 14.001H8.82561C8.13724 14.001 8 14.297 8 14.6221C8 15.2061 8.81573 18.0961 11.7998 21.9182C13.7892 24.5282 16.5899 25.943 19.1414 25.943C20.6707 25.943 20.8596 25.6289 20.8596 25.0871V23.1143C20.8596 22.4861 21.0056 22.3597 21.4898 22.3597C21.8455 22.3597 22.4581 22.5243 23.8865 23.7816C25.5179 25.2727 25.788 25.942 26.7047 25.942H29.1113C29.7986 25.942 30.1422 25.6279 29.9446 25.0078C29.7283 24.3907 28.9488 23.4926 27.9146 22.4299C27.3525 21.8239 26.5126 21.1716 26.2568 20.8455C25.9 20.4251 26.0032 20.2394 26.2568 19.8661C26.2579 19.8671 29.1904 16.0922 29.4956 14.8088Z" fill="#999999"/>
</svg>
