<svg width="40" height="40" viewBox="0 0 40 40" fill="none" xmlns="http://www.w3.org/2000/svg">
<circle cx="20" cy="20" r="20" fill="white"/>
<path fill-rule="evenodd" clip-rule="evenodd" d="M19.714 12C16.4989 12.0003 14.2711 12.011 13.1275 13.1277C12.0109 14.271 12.0002 16.6034 12.0002 19.714C15.4541 19.6098 17.0335 19.5233 18.2932 18.2932C19.5232 17.0335 19.6098 15.454 19.714 12ZM13.1273 26.4726C12.0107 25.3293 12 22.9968 12 19.8863C15.4539 19.9905 17.0333 20.077 18.293 21.3071C19.523 22.5668 19.6096 24.1463 19.7138 27.6C16.4987 27.6 14.2709 27.5896 13.1273 26.4726ZM19.8862 27.6C19.9904 24.1463 20.0769 22.5668 21.307 21.3071C22.5667 20.077 24.1461 19.9905 27.6 19.8863C27.5997 22.9968 27.589 25.3293 26.4723 26.4726C25.3288 27.5896 23.1013 27.6 19.8862 27.6ZM19.8862 12C19.9904 15.454 20.0769 17.0335 21.307 18.2932C22.5667 19.5233 24.1461 19.6098 27.6 19.714C27.5997 16.6034 27.589 14.271 26.4723 13.1277C25.3288 12.011 23.1013 12.0003 19.8862 12Z" fill="#999999"/>
</svg>
