<svg width="40" height="40" viewBox="0 0 40 40" fill="none" xmlns="http://www.w3.org/2000/svg">
<circle cx="20" cy="20" r="20" fill="#FF001A"/>
<path d="M28.6338 16.0439C28.427 15.2479 27.8199 14.6198 27.0491 14.4054C25.6407 14.0065 20.0062 14 20.0062 14C20.0062 14 14.3726 13.9935 12.9633 14.3748C12.2078 14.5873 11.5837 15.2293 11.375 16.0244C11.0036 17.4773 11 20.4907 11 20.4907C11 20.4907 10.9964 23.519 11.3651 24.957C11.572 25.7521 12.1791 26.3802 12.9507 26.5946C14.3735 26.9935 19.9927 27 19.9927 27C19.9927 27 25.6273 27.0065 27.0357 26.6261C27.8055 26.4127 28.4153 25.7855 28.6248 24.9904C28.9972 23.5385 28.9999 20.526 28.9999 20.526C28.9999 20.526 29.0179 17.4968 28.6338 16.0439ZM18.2039 23.2824L18.2084 17.7157L22.8914 20.5037L18.2039 23.2824Z" fill="white"/>
</svg>
